<?xml version="1.0" encoding="utf-8" standalone="no"?>
<!DOCTYPE svg PUBLIC "-//W3C//DTD SVG 1.1//EN"
  "http://www.w3.org/Graphics/SVG/1.1/DTD/svg11.dtd">
<!-- Created with matplotlib (https://matplotlib.org/) -->
<svg height="288pt" version="1.1" viewBox="0 0 432 288" width="432pt" xmlns="http://www.w3.org/2000/svg" xmlns:xlink="http://www.w3.org/1999/xlink">
 <metadata>
  <rdf:RDF xmlns:cc="http://creativecommons.org/ns#" xmlns:dc="http://purl.org/dc/elements/1.1/" xmlns:rdf="http://www.w3.org/1999/02/22-rdf-syntax-ns#">
   <cc:Work>
    <dc:type rdf:resource="http://purl.org/dc/dcmitype/StillImage"/>
    <dc:date>2021-05-14T08:13:24.980734</dc:date>
    <dc:format>image/svg+xml</dc:format>
    <dc:creator>
     <cc:Agent>
      <dc:title>Matplotlib v3.3.4, https://matplotlib.org/</dc:title>
     </cc:Agent>
    </dc:creator>
   </cc:Work>
  </rdf:RDF>
 </metadata>
 <defs>
  <style type="text/css">*{stroke-linecap:butt;stroke-linejoin:round;}</style>
 </defs>
 <g id="figure_1">
  <g id="patch_1">
   <path d="M 0 288 
L 432 288 
L 432 0 
L 0 0 
z
" style="fill:none;"/>
  </g>
  <g id="axes_1">
   <g id="patch_2">
    <path d="M 54 252 
L 388.8 252 
L 388.8 34.56 
L 54 34.56 
z
" style="fill:#ffffff;"/>
   </g>
   <g id="PathCollection_1">
    <defs>
     <path d="M 0 3 
C 0.795609 3 1.55874 2.683901 2.12132 2.12132 
C 2.683901 1.55874 3 0.795609 3 -0 
C 3 -0.795609 2.683901 -1.55874 2.12132 -2.12132 
C 1.55874 -2.683901 0.795609 -3 0 -3 
C -0.795609 -3 -1.55874 -2.683901 -2.12132 -2.12132 
C -2.683901 -1.55874 -3 -0.795609 -3 0 
C -3 0.795609 -2.683901 1.55874 -2.12132 2.12132 
C -1.55874 2.683901 -0.795609 3 0 3 
z
" id="C0_0_cae6d2a24f"/>
    </defs>
    <g clip-path="url(#pb188415aa7)">
     <use style="fill:#440154;stroke:#440154;" x="352.921131" xlink:href="#C0_0_cae6d2a24f" y="110.722665"/>
    </g>
    <g clip-path="url(#pb188415aa7)">
     <use style="fill:#440154;stroke:#440154;" x="288.789827" xlink:href="#C0_0_cae6d2a24f" y="153.706352"/>
    </g>
    <g clip-path="url(#pb188415aa7)">
     <use style="fill:#440154;stroke:#440154;" x="253.324004" xlink:href="#C0_0_cae6d2a24f" y="130.578166"/>
    </g>
    <g clip-path="url(#pb188415aa7)">
     <use style="fill:#440154;stroke:#440154;" x="208.94918" xlink:href="#C0_0_cae6d2a24f" y="114.269285"/>
    </g>
    <g clip-path="url(#pb188415aa7)">
     <use style="fill:#440154;stroke:#440154;" x="298.5266" xlink:href="#C0_0_cae6d2a24f" y="152.637104"/>
    </g>
    <g clip-path="url(#pb188415aa7)">
     <use style="fill:#440154;stroke:#440154;" x="316.057211" xlink:href="#C0_0_cae6d2a24f" y="131.906704"/>
    </g>
    <g clip-path="url(#pb188415aa7)">
     <use style="fill:#440154;stroke:#440154;" x="373.581818" xlink:href="#C0_0_cae6d2a24f" y="129.501724"/>
    </g>
    <g clip-path="url(#pb188415aa7)">
     <use style="fill:#440154;stroke:#440154;" x="343.263465" xlink:href="#C0_0_cae6d2a24f" y="125.405548"/>
    </g>
    <g clip-path="url(#pb188415aa7)">
     <use style="fill:#440154;stroke:#440154;" x="323.577634" xlink:href="#C0_0_cae6d2a24f" y="98.026492"/>
    </g>
    <g clip-path="url(#pb188415aa7)">
     <use style="fill:#440154;stroke:#440154;" x="315.978287" xlink:href="#C0_0_cae6d2a24f" y="74.661453"/>
    </g>
    <g clip-path="url(#pb188415aa7)">
     <use style="fill:#440154;stroke:#440154;" x="309.390848" xlink:href="#C0_0_cae6d2a24f" y="100.326634"/>
    </g>
    <g clip-path="url(#pb188415aa7)">
     <use style="fill:#440154;stroke:#440154;" x="310.97643" xlink:href="#C0_0_cae6d2a24f" y="116.100716"/>
    </g>
    <g clip-path="url(#pb188415aa7)">
     <use style="fill:#fde725;stroke:#fde725;" x="338.962888" xlink:href="#C0_0_cae6d2a24f" y="203.948754"/>
    </g>
    <g clip-path="url(#pb188415aa7)">
     <use style="fill:#440154;stroke:#440154;" x="263.397031" xlink:href="#C0_0_cae6d2a24f" y="126.849893"/>
    </g>
    <g clip-path="url(#pb188415aa7)">
     <use style="fill:#fde725;stroke:#fde725;" x="256.134571" xlink:href="#C0_0_cae6d2a24f" y="171.348524"/>
    </g>
    <g clip-path="url(#pb188415aa7)">
     <use style="fill:#fde725;stroke:#fde725;" x="286.064395" xlink:href="#C0_0_cae6d2a24f" y="169.681146"/>
    </g>
    <g clip-path="url(#pb188415aa7)">
     <use style="fill:#440154;stroke:#440154;" x="254.571418" xlink:href="#C0_0_cae6d2a24f" y="122.312329"/>
    </g>
    <g clip-path="url(#pb188415aa7)">
     <use style="fill:#440154;stroke:#440154;" x="217.59018" xlink:href="#C0_0_cae6d2a24f" y="146.081416"/>
    </g>
    <g clip-path="url(#pb188415aa7)">
     <use style="fill:#440154;stroke:#440154;" x="293.345515" xlink:href="#C0_0_cae6d2a24f" y="119.074661"/>
    </g>
    <g clip-path="url(#pb188415aa7)">
     <use style="fill:#440154;stroke:#440154;" x="265.133027" xlink:href="#C0_0_cae6d2a24f" y="107.523136"/>
    </g>
    <g clip-path="url(#pb188415aa7)">
     <use style="fill:#440154;stroke:#440154;" x="251.926859" xlink:href="#C0_0_cae6d2a24f" y="141.848722"/>
    </g>
    <g clip-path="url(#pb188415aa7)">
     <use style="fill:#440154;stroke:#440154;" x="249.524949" xlink:href="#C0_0_cae6d2a24f" y="137.560471"/>
    </g>
    <g clip-path="url(#pb188415aa7)">
     <use style="fill:#440154;stroke:#440154;" x="226.385651" xlink:href="#C0_0_cae6d2a24f" y="139.386602"/>
    </g>
    <g clip-path="url(#pb188415aa7)">
     <use style="fill:#440154;stroke:#440154;" x="295.999531" xlink:href="#C0_0_cae6d2a24f" y="135.015435"/>
    </g>
    <g clip-path="url(#pb188415aa7)">
     <use style="fill:#fde725;stroke:#fde725;" x="158.452991" xlink:href="#C0_0_cae6d2a24f" y="216.923379"/>
    </g>
    <g clip-path="url(#pb188415aa7)">
     <use style="fill:#fde725;stroke:#fde725;" x="127.966833" xlink:href="#C0_0_cae6d2a24f" y="204.389372"/>
    </g>
    <g clip-path="url(#pb188415aa7)">
     <use style="fill:#fde725;stroke:#fde725;" x="343.223705" xlink:href="#C0_0_cae6d2a24f" y="201.752432"/>
    </g>
    <g clip-path="url(#pb188415aa7)">
     <use style="fill:#fde725;stroke:#fde725;" x="105.945478" xlink:href="#C0_0_cae6d2a24f" y="103.910653"/>
    </g>
    <g clip-path="url(#pb188415aa7)">
     <use style="fill:#440154;stroke:#440154;" x="157.785392" xlink:href="#C0_0_cae6d2a24f" y="81.074249"/>
    </g>
    <g clip-path="url(#pb188415aa7)">
     <use style="fill:#fde725;stroke:#fde725;" x="69.218182" xlink:href="#C0_0_cae6d2a24f" y="125.113277"/>
    </g>
    <g clip-path="url(#pb188415aa7)">
     <use style="fill:#fde725;stroke:#fde725;" x="157.714523" xlink:href="#C0_0_cae6d2a24f" y="179.928888"/>
    </g>
    <g clip-path="url(#pb188415aa7)">
     <use style="fill:#440154;stroke:#440154;" x="279.01265" xlink:href="#C0_0_cae6d2a24f" y="60.149247"/>
    </g>
    <g clip-path="url(#pb188415aa7)">
     <use style="fill:#440154;stroke:#440154;" x="151.438804" xlink:href="#C0_0_cae6d2a24f" y="116.489075"/>
    </g>
    <g clip-path="url(#pb188415aa7)">
     <use style="fill:#fde725;stroke:#fde725;" x="217.82135" xlink:href="#C0_0_cae6d2a24f" y="195.89664"/>
    </g>
    <g clip-path="url(#pb188415aa7)">
     <use style="fill:#fde725;stroke:#fde725;" x="186.489448" xlink:href="#C0_0_cae6d2a24f" y="190.657582"/>
    </g>
    <g clip-path="url(#pb188415aa7)">
     <use style="fill:#fde725;stroke:#fde725;" x="102.152357" xlink:href="#C0_0_cae6d2a24f" y="155.407608"/>
    </g>
    <g clip-path="url(#pb188415aa7)">
     <use style="fill:#440154;stroke:#440154;" x="145.312376" xlink:href="#C0_0_cae6d2a24f" y="66.969405"/>
    </g>
    <g clip-path="url(#pb188415aa7)">
     <use style="fill:#440154;stroke:#440154;" x="208.989066" xlink:href="#C0_0_cae6d2a24f" y="133.235524"/>
    </g>
    <g clip-path="url(#pb188415aa7)">
     <use style="fill:#fde725;stroke:#fde725;" x="240.076082" xlink:href="#C0_0_cae6d2a24f" y="171.225963"/>
    </g>
    <g clip-path="url(#pb188415aa7)">
     <use style="fill:#fde725;stroke:#fde725;" x="279.94664" xlink:href="#C0_0_cae6d2a24f" y="184.568693"/>
    </g>
    <g clip-path="url(#pb188415aa7)">
     <use style="fill:#440154;stroke:#440154;" x="244.959805" xlink:href="#C0_0_cae6d2a24f" y="71.468104"/>
    </g>
    <g clip-path="url(#pb188415aa7)">
     <use style="fill:#440154;stroke:#440154;" x="330.665324" xlink:href="#C0_0_cae6d2a24f" y="91.068131"/>
    </g>
    <g clip-path="url(#pb188415aa7)">
     <use style="fill:#440154;stroke:#440154;" x="258.443208" xlink:href="#C0_0_cae6d2a24f" y="44.443636"/>
    </g>
    <g clip-path="url(#pb188415aa7)">
     <use style="fill:#440154;stroke:#440154;" x="194.124134" xlink:href="#C0_0_cae6d2a24f" y="61.578689"/>
    </g>
    <g clip-path="url(#pb188415aa7)">
     <use style="fill:#440154;stroke:#440154;" x="264.775308" xlink:href="#C0_0_cae6d2a24f" y="65.206815"/>
    </g>
    <g clip-path="url(#pb188415aa7)">
     <use style="fill:#fde725;stroke:#fde725;" x="243.772389" xlink:href="#C0_0_cae6d2a24f" y="200.803977"/>
    </g>
    <g clip-path="url(#pb188415aa7)">
     <use style="fill:#440154;stroke:#440154;" x="224.977091" xlink:href="#C0_0_cae6d2a24f" y="129.706053"/>
    </g>
    <g clip-path="url(#pb188415aa7)">
     <use style="fill:#440154;stroke:#440154;" x="233.413613" xlink:href="#C0_0_cae6d2a24f" y="153.81825"/>
    </g>
    <g clip-path="url(#pb188415aa7)">
     <use style="fill:#440154;stroke:#440154;" x="182.460859" xlink:href="#C0_0_cae6d2a24f" y="139.326467"/>
    </g>
    <g clip-path="url(#pb188415aa7)">
     <use style="fill:#440154;stroke:#440154;" x="268.259386" xlink:href="#C0_0_cae6d2a24f" y="141.184406"/>
    </g>
    <g clip-path="url(#pb188415aa7)">
     <use style="fill:#440154;stroke:#440154;" x="195.244616" xlink:href="#C0_0_cae6d2a24f" y="131.306161"/>
    </g>
    <g clip-path="url(#pb188415aa7)">
     <use style="fill:#440154;stroke:#440154;" x="286.685889" xlink:href="#C0_0_cae6d2a24f" y="102.522615"/>
    </g>
    <g clip-path="url(#pb188415aa7)">
     <use style="fill:#440154;stroke:#440154;" x="271.131079" xlink:href="#C0_0_cae6d2a24f" y="123.39095"/>
    </g>
    <g clip-path="url(#pb188415aa7)">
     <use style="fill:#440154;stroke:#440154;" x="316.412022" xlink:href="#C0_0_cae6d2a24f" y="145.850798"/>
    </g>
    <g clip-path="url(#pb188415aa7)">
     <use style="fill:#fde725;stroke:#fde725;" x="89.275498" xlink:href="#C0_0_cae6d2a24f" y="189.258188"/>
    </g>
    <g clip-path="url(#pb188415aa7)">
     <use style="fill:#fde725;stroke:#fde725;" x="208.623401" xlink:href="#C0_0_cae6d2a24f" y="184.06651"/>
    </g>
    <g clip-path="url(#pb188415aa7)">
     <use style="fill:#fde725;stroke:#fde725;" x="186.270307" xlink:href="#C0_0_cae6d2a24f" y="225.40782"/>
    </g>
    <g clip-path="url(#pb188415aa7)">
     <use style="fill:#fde725;stroke:#fde725;" x="239.728417" xlink:href="#C0_0_cae6d2a24f" y="242.116364"/>
    </g>
    <g clip-path="url(#pb188415aa7)">
     <use style="fill:#440154;stroke:#440154;" x="258.113546" xlink:href="#C0_0_cae6d2a24f" y="77.63638"/>
    </g>
    <g clip-path="url(#pb188415aa7)">
     <use style="fill:#440154;stroke:#440154;" x="210.764656" xlink:href="#C0_0_cae6d2a24f" y="87.976915"/>
    </g>
    <g clip-path="url(#pb188415aa7)">
     <use style="fill:#440154;stroke:#440154;" x="273.791921" xlink:href="#C0_0_cae6d2a24f" y="76.832108"/>
    </g>
    <g clip-path="url(#pb188415aa7)">
     <use style="fill:#440154;stroke:#440154;" x="237.445068" xlink:href="#C0_0_cae6d2a24f" y="120.774547"/>
    </g>
    <g clip-path="url(#pb188415aa7)">
     <use style="fill:#440154;stroke:#440154;" x="157.439557" xlink:href="#C0_0_cae6d2a24f" y="104.056801"/>
    </g>
    <g clip-path="url(#pb188415aa7)">
     <use style="fill:#440154;stroke:#440154;" x="236.963242" xlink:href="#C0_0_cae6d2a24f" y="143.897991"/>
    </g>
    <g clip-path="url(#pb188415aa7)">
     <use style="fill:#440154;stroke:#440154;" x="241.551159" xlink:href="#C0_0_cae6d2a24f" y="130.980393"/>
    </g>
    <g clip-path="url(#pb188415aa7)">
     <use style="fill:#440154;stroke:#440154;" x="275.829467" xlink:href="#C0_0_cae6d2a24f" y="117.268479"/>
    </g>
    <g clip-path="url(#pb188415aa7)">
     <use style="fill:#440154;stroke:#440154;" x="308.912636" xlink:href="#C0_0_cae6d2a24f" y="147.63972"/>
    </g>
    <g clip-path="url(#pb188415aa7)">
     <use style="fill:#440154;stroke:#440154;" x="242.377658" xlink:href="#C0_0_cae6d2a24f" y="118.601323"/>
    </g>
    <g clip-path="url(#pb188415aa7)">
     <use style="fill:#fde725;stroke:#fde725;" x="302.161149" xlink:href="#C0_0_cae6d2a24f" y="181.297897"/>
    </g>
    <g clip-path="url(#pb188415aa7)">
     <use style="fill:#fde725;stroke:#fde725;" x="134.515322" xlink:href="#C0_0_cae6d2a24f" y="143.044264"/>
    </g>
    <g clip-path="url(#pb188415aa7)">
     <use style="fill:#fde725;stroke:#fde725;" x="121.317649" xlink:href="#C0_0_cae6d2a24f" y="164.512767"/>
    </g>
    <g clip-path="url(#pb188415aa7)">
     <use style="fill:#440154;stroke:#440154;" x="181.142726" xlink:href="#C0_0_cae6d2a24f" y="153.416087"/>
    </g>
    <g clip-path="url(#pb188415aa7)">
     <use style="fill:#440154;stroke:#440154;" x="233.196943" xlink:href="#C0_0_cae6d2a24f" y="126.551693"/>
    </g>
    <g clip-path="url(#pb188415aa7)">
     <use style="fill:#440154;stroke:#440154;" x="244.379003" xlink:href="#C0_0_cae6d2a24f" y="139.340857"/>
    </g>
    <g clip-path="url(#pb188415aa7)">
     <use style="fill:#440154;stroke:#440154;" x="209.121678" xlink:href="#C0_0_cae6d2a24f" y="124.573682"/>
    </g>
    <g clip-path="url(#pb188415aa7)">
     <use style="fill:#440154;stroke:#440154;" x="221.955617" xlink:href="#C0_0_cae6d2a24f" y="92.011085"/>
    </g>
    <g clip-path="url(#pb188415aa7)">
     <use style="fill:#440154;stroke:#440154;" x="205.232686" xlink:href="#C0_0_cae6d2a24f" y="145.752114"/>
    </g>
    <g clip-path="url(#pb188415aa7)">
     <use style="fill:#fde725;stroke:#fde725;" x="366.045983" xlink:href="#C0_0_cae6d2a24f" y="163.351176"/>
    </g>
    <g clip-path="url(#pb188415aa7)">
     <use style="fill:#440154;stroke:#440154;" x="292.0344" xlink:href="#C0_0_cae6d2a24f" y="83.135756"/>
    </g>
    <g clip-path="url(#pb188415aa7)">
     <use style="fill:#440154;stroke:#440154;" x="228.85346" xlink:href="#C0_0_cae6d2a24f" y="100.626266"/>
    </g>
    <g clip-path="url(#pb188415aa7)">
     <use style="fill:#440154;stroke:#440154;" x="179.942012" xlink:href="#C0_0_cae6d2a24f" y="97.949572"/>
    </g>
    <g clip-path="url(#pb188415aa7)">
     <use style="fill:#440154;stroke:#440154;" x="250.923611" xlink:href="#C0_0_cae6d2a24f" y="61.643489"/>
    </g>
    <g clip-path="url(#pb188415aa7)">
     <use style="fill:#440154;stroke:#440154;" x="259.021308" xlink:href="#C0_0_cae6d2a24f" y="98.164754"/>
    </g>
    <g clip-path="url(#pb188415aa7)">
     <use style="fill:#440154;stroke:#440154;" x="166.974682" xlink:href="#C0_0_cae6d2a24f" y="96.384038"/>
    </g>
    <g clip-path="url(#pb188415aa7)">
     <use style="fill:#440154;stroke:#440154;" x="224.540848" xlink:href="#C0_0_cae6d2a24f" y="70.62094"/>
    </g>
    <g clip-path="url(#pb188415aa7)">
     <use style="fill:#440154;stroke:#440154;" x="254.14649" xlink:href="#C0_0_cae6d2a24f" y="90.107643"/>
    </g>
    <g clip-path="url(#pb188415aa7)">
     <use style="fill:#440154;stroke:#440154;" x="203.289571" xlink:href="#C0_0_cae6d2a24f" y="97.699026"/>
    </g>
    <g clip-path="url(#pb188415aa7)">
     <use style="fill:#440154;stroke:#440154;" x="237.255455" xlink:href="#C0_0_cae6d2a24f" y="89.096811"/>
    </g>
    <g clip-path="url(#pb188415aa7)">
     <use style="fill:#440154;stroke:#440154;" x="185.283899" xlink:href="#C0_0_cae6d2a24f" y="89.587375"/>
    </g>
    <g clip-path="url(#pb188415aa7)">
     <use style="fill:#440154;stroke:#440154;" x="225.587368" xlink:href="#C0_0_cae6d2a24f" y="85.341424"/>
    </g>
    <g clip-path="url(#pb188415aa7)">
     <use style="fill:#440154;stroke:#440154;" x="224.44096" xlink:href="#C0_0_cae6d2a24f" y="86.281326"/>
    </g>
    <g clip-path="url(#pb188415aa7)">
     <use style="fill:#440154;stroke:#440154;" x="216.552862" xlink:href="#C0_0_cae6d2a24f" y="80.912527"/>
    </g>
    <g clip-path="url(#pb188415aa7)">
     <use style="fill:#440154;stroke:#440154;" x="221.432982" xlink:href="#C0_0_cae6d2a24f" y="86.165309"/>
    </g>
    <g clip-path="url(#pb188415aa7)">
     <use style="fill:#440154;stroke:#440154;" x="218.534657" xlink:href="#C0_0_cae6d2a24f" y="84.104763"/>
    </g>
    <g clip-path="url(#pb188415aa7)">
     <use style="fill:#440154;stroke:#440154;" x="223.304376" xlink:href="#C0_0_cae6d2a24f" y="85.569313"/>
    </g>
    <g clip-path="url(#pb188415aa7)">
     <use style="fill:#440154;stroke:#440154;" x="231.394881" xlink:href="#C0_0_cae6d2a24f" y="83.134419"/>
    </g>
    <g clip-path="url(#pb188415aa7)">
     <use style="fill:#440154;stroke:#440154;" x="197.289023" xlink:href="#C0_0_cae6d2a24f" y="79.763338"/>
    </g>
    <g clip-path="url(#pb188415aa7)">
     <use style="fill:#440154;stroke:#440154;" x="211.155062" xlink:href="#C0_0_cae6d2a24f" y="84.435348"/>
    </g>
    <g clip-path="url(#pb188415aa7)">
     <use style="fill:#440154;stroke:#440154;" x="215.311186" xlink:href="#C0_0_cae6d2a24f" y="86.359154"/>
    </g>
    <g clip-path="url(#pb188415aa7)">
     <use style="fill:#440154;stroke:#440154;" x="204.22445" xlink:href="#C0_0_cae6d2a24f" y="77.864065"/>
    </g>
    <g clip-path="url(#pb188415aa7)">
     <use style="fill:#440154;stroke:#440154;" x="229.840467" xlink:href="#C0_0_cae6d2a24f" y="84.612605"/>
    </g>
    <g clip-path="url(#pb188415aa7)">
     <use style="fill:#440154;stroke:#440154;" x="221.884285" xlink:href="#C0_0_cae6d2a24f" y="80.432685"/>
    </g>
    <g clip-path="url(#pb188415aa7)">
     <use style="fill:#440154;stroke:#440154;" x="225.587368" xlink:href="#C0_0_cae6d2a24f" y="85.341424"/>
    </g>
    <g clip-path="url(#pb188415aa7)">
     <use style="fill:#440154;stroke:#440154;" x="226.499112" xlink:href="#C0_0_cae6d2a24f" y="85.490979"/>
    </g>
    <g clip-path="url(#pb188415aa7)">
     <use style="fill:#440154;stroke:#440154;" x="226.388789" xlink:href="#C0_0_cae6d2a24f" y="85.474566"/>
    </g>
    <g clip-path="url(#pb188415aa7)">
     <use style="fill:#440154;stroke:#440154;" x="227.61508" xlink:href="#C0_0_cae6d2a24f" y="85.006603"/>
    </g>
    <g clip-path="url(#pb188415aa7)">
     <use style="fill:#440154;stroke:#440154;" x="230.066847" xlink:href="#C0_0_cae6d2a24f" y="79.681966"/>
    </g>
    <g clip-path="url(#pb188415aa7)">
     <use style="fill:#440154;stroke:#440154;" x="228.866765" xlink:href="#C0_0_cae6d2a24f" y="82.397502"/>
    </g>
    <g clip-path="url(#pb188415aa7)">
     <use style="fill:#440154;stroke:#440154;" x="227.396549" xlink:href="#C0_0_cae6d2a24f" y="81.620735"/>
    </g>
    <g clip-path="url(#pb188415aa7)">
     <use style="fill:#440154;stroke:#440154;" x="227.759485" xlink:href="#C0_0_cae6d2a24f" y="81.49351"/>
    </g>
    <g clip-path="url(#pb188415aa7)">
     <use style="fill:#440154;stroke:#440154;" x="225.867211" xlink:href="#C0_0_cae6d2a24f" y="84.381904"/>
    </g>
    <g clip-path="url(#pb188415aa7)">
     <use style="fill:#440154;stroke:#440154;" x="219.422796" xlink:href="#C0_0_cae6d2a24f" y="81.700674"/>
    </g>
   </g>
   <g id="matplotlib.axis_1">
    <g id="xtick_1">
     <g id="line2d_1">
      <defs>
       <path d="M 0 0 
L 0 3.5 
" id="m57e2ff4342" style="stroke:#000000;stroke-width:0.8;"/>
      </defs>
      <g>
       <use style="stroke:#000000;stroke-width:0.8;" x="84.623104" xlink:href="#m57e2ff4342" y="252"/>
      </g>
     </g>
     <g id="text_1">
      <!-- −20 -->
      <g transform="translate(74.070761 266.598437)scale(0.1 -0.1)">
       <defs>
        <path d="M 10.59375 35.5 
L 73.1875 35.5 
L 73.1875 27.203125 
L 10.59375 27.203125 
z
" id="DejaVuSans-8722"/>
        <path d="M 19.1875 8.296875 
L 53.609375 8.296875 
L 53.609375 0 
L 7.328125 0 
L 7.328125 8.296875 
Q 12.9375 14.109375 22.625 23.890625 
Q 32.328125 33.6875 34.8125 36.53125 
Q 39.546875 41.84375 41.421875 45.53125 
Q 43.3125 49.21875 43.3125 52.78125 
Q 43.3125 58.59375 39.234375 62.25 
Q 35.15625 65.921875 28.609375 65.921875 
Q 23.96875 65.921875 18.8125 64.3125 
Q 13.671875 62.703125 7.8125 59.421875 
L 7.8125 69.390625 
Q 13.765625 71.78125 18.9375 73 
Q 24.125 74.21875 28.421875 74.21875 
Q 39.75 74.21875 46.484375 68.546875 
Q 53.21875 62.890625 53.21875 53.421875 
Q 53.21875 48.921875 51.53125 44.890625 
Q 49.859375 40.875 45.40625 35.40625 
Q 44.1875 33.984375 37.640625 27.21875 
Q 31.109375 20.453125 19.1875 8.296875 
z
" id="DejaVuSans-50"/>
        <path d="M 31.78125 66.40625 
Q 24.171875 66.40625 20.328125 58.90625 
Q 16.5 51.421875 16.5 36.375 
Q 16.5 21.390625 20.328125 13.890625 
Q 24.171875 6.390625 31.78125 6.390625 
Q 39.453125 6.390625 43.28125 13.890625 
Q 47.125 21.390625 47.125 36.375 
Q 47.125 51.421875 43.28125 58.90625 
Q 39.453125 66.40625 31.78125 66.40625 
z
M 31.78125 74.21875 
Q 44.046875 74.21875 50.515625 64.515625 
Q 56.984375 54.828125 56.984375 36.375 
Q 56.984375 17.96875 50.515625 8.265625 
Q 44.046875 -1.421875 31.78125 -1.421875 
Q 19.53125 -1.421875 13.0625 8.265625 
Q 6.59375 17.96875 6.59375 36.375 
Q 6.59375 54.828125 13.0625 64.515625 
Q 19.53125 74.21875 31.78125 74.21875 
z
" id="DejaVuSans-48"/>
       </defs>
       <use xlink:href="#DejaVuSans-8722"/>
       <use x="83.789062" xlink:href="#DejaVuSans-50"/>
       <use x="147.412109" xlink:href="#DejaVuSans-48"/>
      </g>
     </g>
    </g>
    <g id="xtick_2">
     <g id="line2d_2">
      <g>
       <use style="stroke:#000000;stroke-width:0.8;" x="122.208593" xlink:href="#m57e2ff4342" y="252"/>
      </g>
     </g>
     <g id="text_2">
      <!-- −15 -->
      <g transform="translate(111.656249 266.598437)scale(0.1 -0.1)">
       <defs>
        <path d="M 12.40625 8.296875 
L 28.515625 8.296875 
L 28.515625 63.921875 
L 10.984375 60.40625 
L 10.984375 69.390625 
L 28.421875 72.90625 
L 38.28125 72.90625 
L 38.28125 8.296875 
L 54.390625 8.296875 
L 54.390625 0 
L 12.40625 0 
z
" id="DejaVuSans-49"/>
        <path d="M 10.796875 72.90625 
L 49.515625 72.90625 
L 49.515625 64.59375 
L 19.828125 64.59375 
L 19.828125 46.734375 
Q 21.96875 47.46875 24.109375 47.828125 
Q 26.265625 48.1875 28.421875 48.1875 
Q 40.625 48.1875 47.75 41.5 
Q 54.890625 34.8125 54.890625 23.390625 
Q 54.890625 11.625 47.5625 5.09375 
Q 40.234375 -1.421875 26.90625 -1.421875 
Q 22.3125 -1.421875 17.546875 -0.640625 
Q 12.796875 0.140625 7.71875 1.703125 
L 7.71875 11.625 
Q 12.109375 9.234375 16.796875 8.0625 
Q 21.484375 6.890625 26.703125 6.890625 
Q 35.15625 6.890625 40.078125 11.328125 
Q 45.015625 15.765625 45.015625 23.390625 
Q 45.015625 31 40.078125 35.4375 
Q 35.15625 39.890625 26.703125 39.890625 
Q 22.75 39.890625 18.8125 39.015625 
Q 14.890625 38.140625 10.796875 36.28125 
z
" id="DejaVuSans-53"/>
       </defs>
       <use xlink:href="#DejaVuSans-8722"/>
       <use x="83.789062" xlink:href="#DejaVuSans-49"/>
       <use x="147.412109" xlink:href="#DejaVuSans-53"/>
      </g>
     </g>
    </g>
    <g id="xtick_3">
     <g id="line2d_3">
      <g>
       <use style="stroke:#000000;stroke-width:0.8;" x="159.794082" xlink:href="#m57e2ff4342" y="252"/>
      </g>
     </g>
     <g id="text_3">
      <!-- −10 -->
      <g transform="translate(149.241738 266.598437)scale(0.1 -0.1)">
       <use xlink:href="#DejaVuSans-8722"/>
       <use x="83.789062" xlink:href="#DejaVuSans-49"/>
       <use x="147.412109" xlink:href="#DejaVuSans-48"/>
      </g>
     </g>
    </g>
    <g id="xtick_4">
     <g id="line2d_4">
      <g>
       <use style="stroke:#000000;stroke-width:0.8;" x="197.379571" xlink:href="#m57e2ff4342" y="252"/>
      </g>
     </g>
     <g id="text_4">
      <!-- −5 -->
      <g transform="translate(190.008477 266.598437)scale(0.1 -0.1)">
       <use xlink:href="#DejaVuSans-8722"/>
       <use x="83.789062" xlink:href="#DejaVuSans-53"/>
      </g>
     </g>
    </g>
    <g id="xtick_5">
     <g id="line2d_5">
      <g>
       <use style="stroke:#000000;stroke-width:0.8;" x="234.965059" xlink:href="#m57e2ff4342" y="252"/>
      </g>
     </g>
     <g id="text_5">
      <!-- 0 -->
      <g transform="translate(231.783809 266.598437)scale(0.1 -0.1)">
       <use xlink:href="#DejaVuSans-48"/>
      </g>
     </g>
    </g>
    <g id="xtick_6">
     <g id="line2d_6">
      <g>
       <use style="stroke:#000000;stroke-width:0.8;" x="272.550548" xlink:href="#m57e2ff4342" y="252"/>
      </g>
     </g>
     <g id="text_6">
      <!-- 5 -->
      <g transform="translate(269.369298 266.598437)scale(0.1 -0.1)">
       <use xlink:href="#DejaVuSans-53"/>
      </g>
     </g>
    </g>
    <g id="xtick_7">
     <g id="line2d_7">
      <g>
       <use style="stroke:#000000;stroke-width:0.8;" x="310.136037" xlink:href="#m57e2ff4342" y="252"/>
      </g>
     </g>
     <g id="text_7">
      <!-- 10 -->
      <g transform="translate(303.773537 266.598437)scale(0.1 -0.1)">
       <use xlink:href="#DejaVuSans-49"/>
       <use x="63.623047" xlink:href="#DejaVuSans-48"/>
      </g>
     </g>
    </g>
    <g id="xtick_8">
     <g id="line2d_8">
      <g>
       <use style="stroke:#000000;stroke-width:0.8;" x="347.721525" xlink:href="#m57e2ff4342" y="252"/>
      </g>
     </g>
     <g id="text_8">
      <!-- 15 -->
      <g transform="translate(341.359025 266.598437)scale(0.1 -0.1)">
       <use xlink:href="#DejaVuSans-49"/>
       <use x="63.623047" xlink:href="#DejaVuSans-53"/>
      </g>
     </g>
    </g>
    <g id="xtick_9">
     <g id="line2d_9">
      <g>
       <use style="stroke:#000000;stroke-width:0.8;" x="385.307014" xlink:href="#m57e2ff4342" y="252"/>
      </g>
     </g>
     <g id="text_9">
      <!-- 20 -->
      <g transform="translate(378.944514 266.598437)scale(0.1 -0.1)">
       <use xlink:href="#DejaVuSans-50"/>
       <use x="63.623047" xlink:href="#DejaVuSans-48"/>
      </g>
     </g>
    </g>
   </g>
   <g id="matplotlib.axis_2">
    <g id="ytick_1">
     <g id="line2d_10">
      <defs>
       <path d="M 0 0 
L -3.5 0 
" id="m45fd91a397" style="stroke:#000000;stroke-width:0.8;"/>
      </defs>
      <g>
       <use style="stroke:#000000;stroke-width:0.8;" x="54" xlink:href="#m45fd91a397" y="243.973625"/>
      </g>
     </g>
     <g id="text_10">
      <!-- −25 -->
      <g transform="translate(25.895312 247.772844)scale(0.1 -0.1)">
       <use xlink:href="#DejaVuSans-8722"/>
       <use x="83.789062" xlink:href="#DejaVuSans-50"/>
       <use x="147.412109" xlink:href="#DejaVuSans-53"/>
      </g>
     </g>
    </g>
    <g id="ytick_2">
     <g id="line2d_11">
      <g>
       <use style="stroke:#000000;stroke-width:0.8;" x="54" xlink:href="#m45fd91a397" y="219.180307"/>
      </g>
     </g>
     <g id="text_11">
      <!-- −20 -->
      <g transform="translate(25.895312 222.979526)scale(0.1 -0.1)">
       <use xlink:href="#DejaVuSans-8722"/>
       <use x="83.789062" xlink:href="#DejaVuSans-50"/>
       <use x="147.412109" xlink:href="#DejaVuSans-48"/>
      </g>
     </g>
    </g>
    <g id="ytick_3">
     <g id="line2d_12">
      <g>
       <use style="stroke:#000000;stroke-width:0.8;" x="54" xlink:href="#m45fd91a397" y="194.386989"/>
      </g>
     </g>
     <g id="text_12">
      <!-- −15 -->
      <g transform="translate(25.895312 198.186208)scale(0.1 -0.1)">
       <use xlink:href="#DejaVuSans-8722"/>
       <use x="83.789062" xlink:href="#DejaVuSans-49"/>
       <use x="147.412109" xlink:href="#DejaVuSans-53"/>
      </g>
     </g>
    </g>
    <g id="ytick_4">
     <g id="line2d_13">
      <g>
       <use style="stroke:#000000;stroke-width:0.8;" x="54" xlink:href="#m45fd91a397" y="169.593671"/>
      </g>
     </g>
     <g id="text_13">
      <!-- −10 -->
      <g transform="translate(25.895312 173.39289)scale(0.1 -0.1)">
       <use xlink:href="#DejaVuSans-8722"/>
       <use x="83.789062" xlink:href="#DejaVuSans-49"/>
       <use x="147.412109" xlink:href="#DejaVuSans-48"/>
      </g>
     </g>
    </g>
    <g id="ytick_5">
     <g id="line2d_14">
      <g>
       <use style="stroke:#000000;stroke-width:0.8;" x="54" xlink:href="#m45fd91a397" y="144.800353"/>
      </g>
     </g>
     <g id="text_14">
      <!-- −5 -->
      <g transform="translate(32.257812 148.599572)scale(0.1 -0.1)">
       <use xlink:href="#DejaVuSans-8722"/>
       <use x="83.789062" xlink:href="#DejaVuSans-53"/>
      </g>
     </g>
    </g>
    <g id="ytick_6">
     <g id="line2d_15">
      <g>
       <use style="stroke:#000000;stroke-width:0.8;" x="54" xlink:href="#m45fd91a397" y="120.007035"/>
      </g>
     </g>
     <g id="text_15">
      <!-- 0 -->
      <g transform="translate(40.6375 123.806254)scale(0.1 -0.1)">
       <use xlink:href="#DejaVuSans-48"/>
      </g>
     </g>
    </g>
    <g id="ytick_7">
     <g id="line2d_16">
      <g>
       <use style="stroke:#000000;stroke-width:0.8;" x="54" xlink:href="#m45fd91a397" y="95.213717"/>
      </g>
     </g>
     <g id="text_16">
      <!-- 5 -->
      <g transform="translate(40.6375 99.012936)scale(0.1 -0.1)">
       <use xlink:href="#DejaVuSans-53"/>
      </g>
     </g>
    </g>
    <g id="ytick_8">
     <g id="line2d_17">
      <g>
       <use style="stroke:#000000;stroke-width:0.8;" x="54" xlink:href="#m45fd91a397" y="70.420399"/>
      </g>
     </g>
     <g id="text_17">
      <!-- 10 -->
      <g transform="translate(34.275 74.219618)scale(0.1 -0.1)">
       <use xlink:href="#DejaVuSans-49"/>
       <use x="63.623047" xlink:href="#DejaVuSans-48"/>
      </g>
     </g>
    </g>
    <g id="ytick_9">
     <g id="line2d_18">
      <g>
       <use style="stroke:#000000;stroke-width:0.8;" x="54" xlink:href="#m45fd91a397" y="45.627081"/>
      </g>
     </g>
     <g id="text_18">
      <!-- 15 -->
      <g transform="translate(34.275 49.4263)scale(0.1 -0.1)">
       <use xlink:href="#DejaVuSans-49"/>
       <use x="63.623047" xlink:href="#DejaVuSans-53"/>
      </g>
     </g>
    </g>
   </g>
   <g id="patch_3">
    <path d="M 54 252 
L 54 34.56 
" style="fill:none;stroke:#000000;stroke-linecap:square;stroke-linejoin:miter;stroke-width:0.8;"/>
   </g>
   <g id="patch_4">
    <path d="M 388.8 252 
L 388.8 34.56 
" style="fill:none;stroke:#000000;stroke-linecap:square;stroke-linejoin:miter;stroke-width:0.8;"/>
   </g>
   <g id="patch_5">
    <path d="M 54 252 
L 388.8 252 
" style="fill:none;stroke:#000000;stroke-linecap:square;stroke-linejoin:miter;stroke-width:0.8;"/>
   </g>
   <g id="patch_6">
    <path d="M 54 34.56 
L 388.8 34.56 
" style="fill:none;stroke:#000000;stroke-linecap:square;stroke-linejoin:miter;stroke-width:0.8;"/>
   </g>
   <g id="text_19">
    <!-- Estimated number of clusters: 2  -->
    <g transform="translate(122.985938 28.56)scale(0.12 -0.12)">
     <defs>
      <path d="M 9.8125 72.90625 
L 55.90625 72.90625 
L 55.90625 64.59375 
L 19.671875 64.59375 
L 19.671875 43.015625 
L 54.390625 43.015625 
L 54.390625 34.71875 
L 19.671875 34.71875 
L 19.671875 8.296875 
L 56.78125 8.296875 
L 56.78125 0 
L 9.8125 0 
z
" id="DejaVuSans-69"/>
      <path d="M 44.28125 53.078125 
L 44.28125 44.578125 
Q 40.484375 46.53125 36.375 47.5 
Q 32.28125 48.484375 27.875 48.484375 
Q 21.1875 48.484375 17.84375 46.4375 
Q 14.5 44.390625 14.5 40.28125 
Q 14.5 37.15625 16.890625 35.375 
Q 19.28125 33.59375 26.515625 31.984375 
L 29.59375 31.296875 
Q 39.15625 29.25 43.1875 25.515625 
Q 47.21875 21.78125 47.21875 15.09375 
Q 47.21875 7.46875 41.1875 3.015625 
Q 35.15625 -1.421875 24.609375 -1.421875 
Q 20.21875 -1.421875 15.453125 -0.5625 
Q 10.6875 0.296875 5.421875 2 
L 5.421875 11.28125 
Q 10.40625 8.6875 15.234375 7.390625 
Q 20.0625 6.109375 24.8125 6.109375 
Q 31.15625 6.109375 34.5625 8.28125 
Q 37.984375 10.453125 37.984375 14.40625 
Q 37.984375 18.0625 35.515625 20.015625 
Q 33.0625 21.96875 24.703125 23.78125 
L 21.578125 24.515625 
Q 13.234375 26.265625 9.515625 29.90625 
Q 5.8125 33.546875 5.8125 39.890625 
Q 5.8125 47.609375 11.28125 51.796875 
Q 16.75 56 26.8125 56 
Q 31.78125 56 36.171875 55.265625 
Q 40.578125 54.546875 44.28125 53.078125 
z
" id="DejaVuSans-115"/>
      <path d="M 18.3125 70.21875 
L 18.3125 54.6875 
L 36.8125 54.6875 
L 36.8125 47.703125 
L 18.3125 47.703125 
L 18.3125 18.015625 
Q 18.3125 11.328125 20.140625 9.421875 
Q 21.96875 7.515625 27.59375 7.515625 
L 36.8125 7.515625 
L 36.8125 0 
L 27.59375 0 
Q 17.1875 0 13.234375 3.875 
Q 9.28125 7.765625 9.28125 18.015625 
L 9.28125 47.703125 
L 2.6875 47.703125 
L 2.6875 54.6875 
L 9.28125 54.6875 
L 9.28125 70.21875 
z
" id="DejaVuSans-116"/>
      <path d="M 9.421875 54.6875 
L 18.40625 54.6875 
L 18.40625 0 
L 9.421875 0 
z
M 9.421875 75.984375 
L 18.40625 75.984375 
L 18.40625 64.59375 
L 9.421875 64.59375 
z
" id="DejaVuSans-105"/>
      <path d="M 52 44.1875 
Q 55.375 50.25 60.0625 53.125 
Q 64.75 56 71.09375 56 
Q 79.640625 56 84.28125 50.015625 
Q 88.921875 44.046875 88.921875 33.015625 
L 88.921875 0 
L 79.890625 0 
L 79.890625 32.71875 
Q 79.890625 40.578125 77.09375 44.375 
Q 74.3125 48.1875 68.609375 48.1875 
Q 61.625 48.1875 57.5625 43.546875 
Q 53.515625 38.921875 53.515625 30.90625 
L 53.515625 0 
L 44.484375 0 
L 44.484375 32.71875 
Q 44.484375 40.625 41.703125 44.40625 
Q 38.921875 48.1875 33.109375 48.1875 
Q 26.21875 48.1875 22.15625 43.53125 
Q 18.109375 38.875 18.109375 30.90625 
L 18.109375 0 
L 9.078125 0 
L 9.078125 54.6875 
L 18.109375 54.6875 
L 18.109375 46.1875 
Q 21.1875 51.21875 25.484375 53.609375 
Q 29.78125 56 35.6875 56 
Q 41.65625 56 45.828125 52.96875 
Q 50 49.953125 52 44.1875 
z
" id="DejaVuSans-109"/>
      <path d="M 34.28125 27.484375 
Q 23.390625 27.484375 19.1875 25 
Q 14.984375 22.515625 14.984375 16.5 
Q 14.984375 11.71875 18.140625 8.90625 
Q 21.296875 6.109375 26.703125 6.109375 
Q 34.1875 6.109375 38.703125 11.40625 
Q 43.21875 16.703125 43.21875 25.484375 
L 43.21875 27.484375 
z
M 52.203125 31.203125 
L 52.203125 0 
L 43.21875 0 
L 43.21875 8.296875 
Q 40.140625 3.328125 35.546875 0.953125 
Q 30.953125 -1.421875 24.3125 -1.421875 
Q 15.921875 -1.421875 10.953125 3.296875 
Q 6 8.015625 6 15.921875 
Q 6 25.140625 12.171875 29.828125 
Q 18.359375 34.515625 30.609375 34.515625 
L 43.21875 34.515625 
L 43.21875 35.40625 
Q 43.21875 41.609375 39.140625 45 
Q 35.0625 48.390625 27.6875 48.390625 
Q 23 48.390625 18.546875 47.265625 
Q 14.109375 46.140625 10.015625 43.890625 
L 10.015625 52.203125 
Q 14.9375 54.109375 19.578125 55.046875 
Q 24.21875 56 28.609375 56 
Q 40.484375 56 46.34375 49.84375 
Q 52.203125 43.703125 52.203125 31.203125 
z
" id="DejaVuSans-97"/>
      <path d="M 56.203125 29.59375 
L 56.203125 25.203125 
L 14.890625 25.203125 
Q 15.484375 15.921875 20.484375 11.0625 
Q 25.484375 6.203125 34.421875 6.203125 
Q 39.59375 6.203125 44.453125 7.46875 
Q 49.3125 8.734375 54.109375 11.28125 
L 54.109375 2.78125 
Q 49.265625 0.734375 44.1875 -0.34375 
Q 39.109375 -1.421875 33.890625 -1.421875 
Q 20.796875 -1.421875 13.15625 6.1875 
Q 5.515625 13.8125 5.515625 26.8125 
Q 5.515625 40.234375 12.765625 48.109375 
Q 20.015625 56 32.328125 56 
Q 43.359375 56 49.78125 48.890625 
Q 56.203125 41.796875 56.203125 29.59375 
z
M 47.21875 32.234375 
Q 47.125 39.59375 43.09375 43.984375 
Q 39.0625 48.390625 32.421875 48.390625 
Q 24.90625 48.390625 20.390625 44.140625 
Q 15.875 39.890625 15.1875 32.171875 
z
" id="DejaVuSans-101"/>
      <path d="M 45.40625 46.390625 
L 45.40625 75.984375 
L 54.390625 75.984375 
L 54.390625 0 
L 45.40625 0 
L 45.40625 8.203125 
Q 42.578125 3.328125 38.25 0.953125 
Q 33.9375 -1.421875 27.875 -1.421875 
Q 17.96875 -1.421875 11.734375 6.484375 
Q 5.515625 14.40625 5.515625 27.296875 
Q 5.515625 40.1875 11.734375 48.09375 
Q 17.96875 56 27.875 56 
Q 33.9375 56 38.25 53.625 
Q 42.578125 51.265625 45.40625 46.390625 
z
M 14.796875 27.296875 
Q 14.796875 17.390625 18.875 11.75 
Q 22.953125 6.109375 30.078125 6.109375 
Q 37.203125 6.109375 41.296875 11.75 
Q 45.40625 17.390625 45.40625 27.296875 
Q 45.40625 37.203125 41.296875 42.84375 
Q 37.203125 48.484375 30.078125 48.484375 
Q 22.953125 48.484375 18.875 42.84375 
Q 14.796875 37.203125 14.796875 27.296875 
z
" id="DejaVuSans-100"/>
      <path id="DejaVuSans-32"/>
      <path d="M 54.890625 33.015625 
L 54.890625 0 
L 45.90625 0 
L 45.90625 32.71875 
Q 45.90625 40.484375 42.875 44.328125 
Q 39.84375 48.1875 33.796875 48.1875 
Q 26.515625 48.1875 22.3125 43.546875 
Q 18.109375 38.921875 18.109375 30.90625 
L 18.109375 0 
L 9.078125 0 
L 9.078125 54.6875 
L 18.109375 54.6875 
L 18.109375 46.1875 
Q 21.34375 51.125 25.703125 53.5625 
Q 30.078125 56 35.796875 56 
Q 45.21875 56 50.046875 50.171875 
Q 54.890625 44.34375 54.890625 33.015625 
z
" id="DejaVuSans-110"/>
      <path d="M 8.5 21.578125 
L 8.5 54.6875 
L 17.484375 54.6875 
L 17.484375 21.921875 
Q 17.484375 14.15625 20.5 10.265625 
Q 23.53125 6.390625 29.59375 6.390625 
Q 36.859375 6.390625 41.078125 11.03125 
Q 45.3125 15.671875 45.3125 23.6875 
L 45.3125 54.6875 
L 54.296875 54.6875 
L 54.296875 0 
L 45.3125 0 
L 45.3125 8.40625 
Q 42.046875 3.421875 37.71875 1 
Q 33.40625 -1.421875 27.6875 -1.421875 
Q 18.265625 -1.421875 13.375 4.4375 
Q 8.5 10.296875 8.5 21.578125 
z
M 31.109375 56 
z
" id="DejaVuSans-117"/>
      <path d="M 48.6875 27.296875 
Q 48.6875 37.203125 44.609375 42.84375 
Q 40.53125 48.484375 33.40625 48.484375 
Q 26.265625 48.484375 22.1875 42.84375 
Q 18.109375 37.203125 18.109375 27.296875 
Q 18.109375 17.390625 22.1875 11.75 
Q 26.265625 6.109375 33.40625 6.109375 
Q 40.53125 6.109375 44.609375 11.75 
Q 48.6875 17.390625 48.6875 27.296875 
z
M 18.109375 46.390625 
Q 20.953125 51.265625 25.265625 53.625 
Q 29.59375 56 35.59375 56 
Q 45.5625 56 51.78125 48.09375 
Q 58.015625 40.1875 58.015625 27.296875 
Q 58.015625 14.40625 51.78125 6.484375 
Q 45.5625 -1.421875 35.59375 -1.421875 
Q 29.59375 -1.421875 25.265625 0.953125 
Q 20.953125 3.328125 18.109375 8.203125 
L 18.109375 0 
L 9.078125 0 
L 9.078125 75.984375 
L 18.109375 75.984375 
z
" id="DejaVuSans-98"/>
      <path d="M 41.109375 46.296875 
Q 39.59375 47.171875 37.8125 47.578125 
Q 36.03125 48 33.890625 48 
Q 26.265625 48 22.1875 43.046875 
Q 18.109375 38.09375 18.109375 28.8125 
L 18.109375 0 
L 9.078125 0 
L 9.078125 54.6875 
L 18.109375 54.6875 
L 18.109375 46.1875 
Q 20.953125 51.171875 25.484375 53.578125 
Q 30.03125 56 36.53125 56 
Q 37.453125 56 38.578125 55.875 
Q 39.703125 55.765625 41.0625 55.515625 
z
" id="DejaVuSans-114"/>
      <path d="M 30.609375 48.390625 
Q 23.390625 48.390625 19.1875 42.75 
Q 14.984375 37.109375 14.984375 27.296875 
Q 14.984375 17.484375 19.15625 11.84375 
Q 23.34375 6.203125 30.609375 6.203125 
Q 37.796875 6.203125 41.984375 11.859375 
Q 46.1875 17.53125 46.1875 27.296875 
Q 46.1875 37.015625 41.984375 42.703125 
Q 37.796875 48.390625 30.609375 48.390625 
z
M 30.609375 56 
Q 42.328125 56 49.015625 48.375 
Q 55.71875 40.765625 55.71875 27.296875 
Q 55.71875 13.875 49.015625 6.21875 
Q 42.328125 -1.421875 30.609375 -1.421875 
Q 18.84375 -1.421875 12.171875 6.21875 
Q 5.515625 13.875 5.515625 27.296875 
Q 5.515625 40.765625 12.171875 48.375 
Q 18.84375 56 30.609375 56 
z
" id="DejaVuSans-111"/>
      <path d="M 37.109375 75.984375 
L 37.109375 68.5 
L 28.515625 68.5 
Q 23.6875 68.5 21.796875 66.546875 
Q 19.921875 64.59375 19.921875 59.515625 
L 19.921875 54.6875 
L 34.71875 54.6875 
L 34.71875 47.703125 
L 19.921875 47.703125 
L 19.921875 0 
L 10.890625 0 
L 10.890625 47.703125 
L 2.296875 47.703125 
L 2.296875 54.6875 
L 10.890625 54.6875 
L 10.890625 58.5 
Q 10.890625 67.625 15.140625 71.796875 
Q 19.390625 75.984375 28.609375 75.984375 
z
" id="DejaVuSans-102"/>
      <path d="M 48.78125 52.59375 
L 48.78125 44.1875 
Q 44.96875 46.296875 41.140625 47.34375 
Q 37.3125 48.390625 33.40625 48.390625 
Q 24.65625 48.390625 19.8125 42.84375 
Q 14.984375 37.3125 14.984375 27.296875 
Q 14.984375 17.28125 19.8125 11.734375 
Q 24.65625 6.203125 33.40625 6.203125 
Q 37.3125 6.203125 41.140625 7.25 
Q 44.96875 8.296875 48.78125 10.40625 
L 48.78125 2.09375 
Q 45.015625 0.34375 40.984375 -0.53125 
Q 36.96875 -1.421875 32.421875 -1.421875 
Q 20.0625 -1.421875 12.78125 6.34375 
Q 5.515625 14.109375 5.515625 27.296875 
Q 5.515625 40.671875 12.859375 48.328125 
Q 20.21875 56 33.015625 56 
Q 37.15625 56 41.109375 55.140625 
Q 45.0625 54.296875 48.78125 52.59375 
z
" id="DejaVuSans-99"/>
      <path d="M 9.421875 75.984375 
L 18.40625 75.984375 
L 18.40625 0 
L 9.421875 0 
z
" id="DejaVuSans-108"/>
      <path d="M 11.71875 12.40625 
L 22.015625 12.40625 
L 22.015625 0 
L 11.71875 0 
z
M 11.71875 51.703125 
L 22.015625 51.703125 
L 22.015625 39.3125 
L 11.71875 39.3125 
z
" id="DejaVuSans-58"/>
     </defs>
     <use xlink:href="#DejaVuSans-69"/>
     <use x="63.183594" xlink:href="#DejaVuSans-115"/>
     <use x="115.283203" xlink:href="#DejaVuSans-116"/>
     <use x="154.492188" xlink:href="#DejaVuSans-105"/>
     <use x="182.275391" xlink:href="#DejaVuSans-109"/>
     <use x="279.6875" xlink:href="#DejaVuSans-97"/>
     <use x="340.966797" xlink:href="#DejaVuSans-116"/>
     <use x="380.175781" xlink:href="#DejaVuSans-101"/>
     <use x="441.699219" xlink:href="#DejaVuSans-100"/>
     <use x="505.175781" xlink:href="#DejaVuSans-32"/>
     <use x="536.962891" xlink:href="#DejaVuSans-110"/>
     <use x="600.341797" xlink:href="#DejaVuSans-117"/>
     <use x="663.720703" xlink:href="#DejaVuSans-109"/>
     <use x="761.132812" xlink:href="#DejaVuSans-98"/>
     <use x="824.609375" xlink:href="#DejaVuSans-101"/>
     <use x="886.132812" xlink:href="#DejaVuSans-114"/>
     <use x="927.246094" xlink:href="#DejaVuSans-32"/>
     <use x="959.033203" xlink:href="#DejaVuSans-111"/>
     <use x="1020.214844" xlink:href="#DejaVuSans-102"/>
     <use x="1055.419922" xlink:href="#DejaVuSans-32"/>
     <use x="1087.207031" xlink:href="#DejaVuSans-99"/>
     <use x="1142.1875" xlink:href="#DejaVuSans-108"/>
     <use x="1169.970703" xlink:href="#DejaVuSans-117"/>
     <use x="1233.349609" xlink:href="#DejaVuSans-115"/>
     <use x="1285.449219" xlink:href="#DejaVuSans-116"/>
     <use x="1324.658203" xlink:href="#DejaVuSans-101"/>
     <use x="1386.181641" xlink:href="#DejaVuSans-114"/>
     <use x="1427.294922" xlink:href="#DejaVuSans-115"/>
     <use x="1479.394531" xlink:href="#DejaVuSans-58"/>
     <use x="1513.085938" xlink:href="#DejaVuSans-32"/>
     <use x="1544.873047" xlink:href="#DejaVuSans-50"/>
     <use x="1608.496094" xlink:href="#DejaVuSans-32"/>
    </g>
   </g>
  </g>
 </g>
 <defs>
  <clipPath id="pb188415aa7">
   <rect height="217.44" width="334.8" x="54" y="34.56"/>
  </clipPath>
 </defs>
</svg>
