<?xml version="1.0" encoding="utf-8" standalone="no"?>
<!DOCTYPE svg PUBLIC "-//W3C//DTD SVG 1.1//EN"
  "http://www.w3.org/Graphics/SVG/1.1/DTD/svg11.dtd">
<!-- Created with matplotlib (https://matplotlib.org/) -->
<svg height="288pt" version="1.1" viewBox="0 0 432 288" width="432pt" xmlns="http://www.w3.org/2000/svg" xmlns:xlink="http://www.w3.org/1999/xlink">
 <metadata>
  <rdf:RDF xmlns:cc="http://creativecommons.org/ns#" xmlns:dc="http://purl.org/dc/elements/1.1/" xmlns:rdf="http://www.w3.org/1999/02/22-rdf-syntax-ns#">
   <cc:Work>
    <dc:type rdf:resource="http://purl.org/dc/dcmitype/StillImage"/>
    <dc:date>2021-05-14T08:16:42.559437</dc:date>
    <dc:format>image/svg+xml</dc:format>
    <dc:creator>
     <cc:Agent>
      <dc:title>Matplotlib v3.3.4, https://matplotlib.org/</dc:title>
     </cc:Agent>
    </dc:creator>
   </cc:Work>
  </rdf:RDF>
 </metadata>
 <defs>
  <style type="text/css">*{stroke-linecap:butt;stroke-linejoin:round;}</style>
 </defs>
 <g id="figure_1">
  <g id="patch_1">
   <path d="M 0 288 
L 432 288 
L 432 0 
L 0 0 
z
" style="fill:none;"/>
  </g>
  <g id="axes_1">
   <g id="patch_2">
    <path d="M 54 252 
L 388.8 252 
L 388.8 34.56 
L 54 34.56 
z
" style="fill:#ffffff;"/>
   </g>
   <g id="PathCollection_1">
    <defs>
     <path d="M 0 3 
C 0.795609 3 1.55874 2.683901 2.12132 2.12132 
C 2.683901 1.55874 3 0.795609 3 -0 
C 3 -0.795609 2.683901 -1.55874 2.12132 -2.12132 
C 1.55874 -2.683901 0.795609 -3 0 -3 
C -0.795609 -3 -1.55874 -2.683901 -2.12132 -2.12132 
C -2.683901 -1.55874 -3 -0.795609 -3 0 
C -3 0.795609 -2.683901 1.55874 -2.12132 2.12132 
C -1.55874 2.683901 -0.795609 3 0 3 
z
" id="C0_0_c4e53e5588"/>
    </defs>
    <g clip-path="url(#p8b6505a159)">
     <use style="fill:#440154;stroke:#440154;" x="170.644238" xlink:href="#C0_0_c4e53e5588" y="85.297495"/>
    </g>
    <g clip-path="url(#p8b6505a159)">
     <use style="fill:#440154;stroke:#440154;" x="257.773924" xlink:href="#C0_0_c4e53e5588" y="159.829871"/>
    </g>
    <g clip-path="url(#p8b6505a159)">
     <use style="fill:#440154;stroke:#440154;" x="180.931447" xlink:href="#C0_0_c4e53e5588" y="141.258962"/>
    </g>
    <g clip-path="url(#p8b6505a159)">
     <use style="fill:#fde725;stroke:#fde725;" x="148.947074" xlink:href="#C0_0_c4e53e5588" y="157.746435"/>
    </g>
    <g clip-path="url(#p8b6505a159)">
     <use style="fill:#440154;stroke:#440154;" x="210.951409" xlink:href="#C0_0_c4e53e5588" y="109.328904"/>
    </g>
    <g clip-path="url(#p8b6505a159)">
     <use style="fill:#440154;stroke:#440154;" x="176.65609" xlink:href="#C0_0_c4e53e5588" y="106.404767"/>
    </g>
    <g clip-path="url(#p8b6505a159)">
     <use style="fill:#440154;stroke:#440154;" x="210.298537" xlink:href="#C0_0_c4e53e5588" y="69.452472"/>
    </g>
    <g clip-path="url(#p8b6505a159)">
     <use style="fill:#440154;stroke:#440154;" x="201.049461" xlink:href="#C0_0_c4e53e5588" y="92.472271"/>
    </g>
    <g clip-path="url(#p8b6505a159)">
     <use style="fill:#fde725;stroke:#fde725;" x="96.175677" xlink:href="#C0_0_c4e53e5588" y="137.829626"/>
    </g>
    <g clip-path="url(#p8b6505a159)">
     <use style="fill:#fde725;stroke:#fde725;" x="235.46089" xlink:href="#C0_0_c4e53e5588" y="217.087479"/>
    </g>
    <g clip-path="url(#p8b6505a159)">
     <use style="fill:#fde725;stroke:#fde725;" x="238.596496" xlink:href="#C0_0_c4e53e5588" y="183.153864"/>
    </g>
    <g clip-path="url(#p8b6505a159)">
     <use style="fill:#440154;stroke:#440154;" x="240.927463" xlink:href="#C0_0_c4e53e5588" y="157.094044"/>
    </g>
    <g clip-path="url(#p8b6505a159)">
     <use style="fill:#440154;stroke:#440154;" x="182.412583" xlink:href="#C0_0_c4e53e5588" y="44.443636"/>
    </g>
    <g clip-path="url(#p8b6505a159)">
     <use style="fill:#440154;stroke:#440154;" x="195.606924" xlink:href="#C0_0_c4e53e5588" y="152.653639"/>
    </g>
    <g clip-path="url(#p8b6505a159)">
     <use style="fill:#440154;stroke:#440154;" x="115.940269" xlink:href="#C0_0_c4e53e5588" y="112.884239"/>
    </g>
    <g clip-path="url(#p8b6505a159)">
     <use style="fill:#440154;stroke:#440154;" x="93.231422" xlink:href="#C0_0_c4e53e5588" y="120.895684"/>
    </g>
    <g clip-path="url(#p8b6505a159)">
     <use style="fill:#440154;stroke:#440154;" x="173.963101" xlink:href="#C0_0_c4e53e5588" y="149.590286"/>
    </g>
    <g clip-path="url(#p8b6505a159)">
     <use style="fill:#440154;stroke:#440154;" x="216.040421" xlink:href="#C0_0_c4e53e5588" y="140.633489"/>
    </g>
    <g clip-path="url(#p8b6505a159)">
     <use style="fill:#440154;stroke:#440154;" x="232.660421" xlink:href="#C0_0_c4e53e5588" y="170.54838"/>
    </g>
    <g clip-path="url(#p8b6505a159)">
     <use style="fill:#fde725;stroke:#fde725;" x="194.420771" xlink:href="#C0_0_c4e53e5588" y="172.480091"/>
    </g>
    <g clip-path="url(#p8b6505a159)">
     <use style="fill:#440154;stroke:#440154;" x="173.606015" xlink:href="#C0_0_c4e53e5588" y="131.791189"/>
    </g>
    <g clip-path="url(#p8b6505a159)">
     <use style="fill:#440154;stroke:#440154;" x="192.473214" xlink:href="#C0_0_c4e53e5588" y="138.380802"/>
    </g>
    <g clip-path="url(#p8b6505a159)">
     <use style="fill:#440154;stroke:#440154;" x="201.319111" xlink:href="#C0_0_c4e53e5588" y="140.861332"/>
    </g>
    <g clip-path="url(#p8b6505a159)">
     <use style="fill:#440154;stroke:#440154;" x="235.049476" xlink:href="#C0_0_c4e53e5588" y="141.114169"/>
    </g>
    <g clip-path="url(#p8b6505a159)">
     <use style="fill:#440154;stroke:#440154;" x="126.447993" xlink:href="#C0_0_c4e53e5588" y="48.517747"/>
    </g>
    <g clip-path="url(#p8b6505a159)">
     <use style="fill:#440154;stroke:#440154;" x="295.475097" xlink:href="#C0_0_c4e53e5588" y="68.443169"/>
    </g>
    <g clip-path="url(#p8b6505a159)">
     <use style="fill:#440154;stroke:#440154;" x="315.460715" xlink:href="#C0_0_c4e53e5588" y="88.763825"/>
    </g>
    <g clip-path="url(#p8b6505a159)">
     <use style="fill:#fde725;stroke:#fde725;" x="294.476582" xlink:href="#C0_0_c4e53e5588" y="209.140879"/>
    </g>
    <g clip-path="url(#p8b6505a159)">
     <use style="fill:#fde725;stroke:#fde725;" x="189.880123" xlink:href="#C0_0_c4e53e5588" y="229.755107"/>
    </g>
    <g clip-path="url(#p8b6505a159)">
     <use style="fill:#fde725;stroke:#fde725;" x="310.078399" xlink:href="#C0_0_c4e53e5588" y="242.116364"/>
    </g>
    <g clip-path="url(#p8b6505a159)">
     <use style="fill:#440154;stroke:#440154;" x="300.751494" xlink:href="#C0_0_c4e53e5588" y="126.684706"/>
    </g>
    <g clip-path="url(#p8b6505a159)">
     <use style="fill:#fde725;stroke:#fde725;" x="184.819157" xlink:href="#C0_0_c4e53e5588" y="227.918904"/>
    </g>
    <g clip-path="url(#p8b6505a159)">
     <use style="fill:#fde725;stroke:#fde725;" x="241.886523" xlink:href="#C0_0_c4e53e5588" y="204.643885"/>
    </g>
    <g clip-path="url(#p8b6505a159)">
     <use style="fill:#440154;stroke:#440154;" x="302.893746" xlink:href="#C0_0_c4e53e5588" y="145.995177"/>
    </g>
    <g clip-path="url(#p8b6505a159)">
     <use style="fill:#440154;stroke:#440154;" x="133.355084" xlink:href="#C0_0_c4e53e5588" y="77.228874"/>
    </g>
    <g clip-path="url(#p8b6505a159)">
     <use style="fill:#440154;stroke:#440154;" x="330.427179" xlink:href="#C0_0_c4e53e5588" y="168.811996"/>
    </g>
    <g clip-path="url(#p8b6505a159)">
     <use style="fill:#fde725;stroke:#fde725;" x="220.908111" xlink:href="#C0_0_c4e53e5588" y="239.822839"/>
    </g>
    <g clip-path="url(#p8b6505a159)">
     <use style="fill:#440154;stroke:#440154;" x="215.194558" xlink:href="#C0_0_c4e53e5588" y="161.858198"/>
    </g>
    <g clip-path="url(#p8b6505a159)">
     <use style="fill:#440154;stroke:#440154;" x="257.893494" xlink:href="#C0_0_c4e53e5588" y="139.46491"/>
    </g>
    <g clip-path="url(#p8b6505a159)">
     <use style="fill:#440154;stroke:#440154;" x="249.713706" xlink:href="#C0_0_c4e53e5588" y="101.046823"/>
    </g>
    <g clip-path="url(#p8b6505a159)">
     <use style="fill:#fde725;stroke:#fde725;" x="161.897525" xlink:href="#C0_0_c4e53e5588" y="207.578076"/>
    </g>
    <g clip-path="url(#p8b6505a159)">
     <use style="fill:#fde725;stroke:#fde725;" x="262.568565" xlink:href="#C0_0_c4e53e5588" y="187.664504"/>
    </g>
    <g clip-path="url(#p8b6505a159)">
     <use style="fill:#fde725;stroke:#fde725;" x="173.017443" xlink:href="#C0_0_c4e53e5588" y="239.67915"/>
    </g>
    <g clip-path="url(#p8b6505a159)">
     <use style="fill:#fde725;stroke:#fde725;" x="196.540865" xlink:href="#C0_0_c4e53e5588" y="218.956033"/>
    </g>
    <g clip-path="url(#p8b6505a159)">
     <use style="fill:#fde725;stroke:#fde725;" x="172.220004" xlink:href="#C0_0_c4e53e5588" y="218.902079"/>
    </g>
    <g clip-path="url(#p8b6505a159)">
     <use style="fill:#fde725;stroke:#fde725;" x="293.132897" xlink:href="#C0_0_c4e53e5588" y="212.703157"/>
    </g>
    <g clip-path="url(#p8b6505a159)">
     <use style="fill:#440154;stroke:#440154;" x="174.799596" xlink:href="#C0_0_c4e53e5588" y="144.591985"/>
    </g>
    <g clip-path="url(#p8b6505a159)">
     <use style="fill:#440154;stroke:#440154;" x="198.756017" xlink:href="#C0_0_c4e53e5588" y="123.61806"/>
    </g>
    <g clip-path="url(#p8b6505a159)">
     <use style="fill:#440154;stroke:#440154;" x="131.779845" xlink:href="#C0_0_c4e53e5588" y="127.616469"/>
    </g>
    <g clip-path="url(#p8b6505a159)">
     <use style="fill:#440154;stroke:#440154;" x="150.752584" xlink:href="#C0_0_c4e53e5588" y="127.580754"/>
    </g>
    <g clip-path="url(#p8b6505a159)">
     <use style="fill:#440154;stroke:#440154;" x="211.986154" xlink:href="#C0_0_c4e53e5588" y="151.140886"/>
    </g>
    <g clip-path="url(#p8b6505a159)">
     <use style="fill:#fde725;stroke:#fde725;" x="214.919492" xlink:href="#C0_0_c4e53e5588" y="179.962583"/>
    </g>
    <g clip-path="url(#p8b6505a159)">
     <use style="fill:#440154;stroke:#440154;" x="206.330018" xlink:href="#C0_0_c4e53e5588" y="160.032176"/>
    </g>
    <g clip-path="url(#p8b6505a159)">
     <use style="fill:#440154;stroke:#440154;" x="138.804141" xlink:href="#C0_0_c4e53e5588" y="106.242725"/>
    </g>
    <g clip-path="url(#p8b6505a159)">
     <use style="fill:#440154;stroke:#440154;" x="367.383805" xlink:href="#C0_0_c4e53e5588" y="181.288255"/>
    </g>
    <g clip-path="url(#p8b6505a159)">
     <use style="fill:#440154;stroke:#440154;" x="279.019555" xlink:href="#C0_0_c4e53e5588" y="126.975847"/>
    </g>
    <g clip-path="url(#p8b6505a159)">
     <use style="fill:#440154;stroke:#440154;" x="347.910183" xlink:href="#C0_0_c4e53e5588" y="122.848081"/>
    </g>
    <g clip-path="url(#p8b6505a159)">
     <use style="fill:#440154;stroke:#440154;" x="373.581818" xlink:href="#C0_0_c4e53e5588" y="141.708575"/>
    </g>
    <g clip-path="url(#p8b6505a159)">
     <use style="fill:#fde725;stroke:#fde725;" x="171.626262" xlink:href="#C0_0_c4e53e5588" y="202.586472"/>
    </g>
    <g clip-path="url(#p8b6505a159)">
     <use style="fill:#fde725;stroke:#fde725;" x="132.20127" xlink:href="#C0_0_c4e53e5588" y="185.245107"/>
    </g>
    <g clip-path="url(#p8b6505a159)">
     <use style="fill:#fde725;stroke:#fde725;" x="107.062157" xlink:href="#C0_0_c4e53e5588" y="164.550086"/>
    </g>
    <g clip-path="url(#p8b6505a159)">
     <use style="fill:#fde725;stroke:#fde725;" x="174.388993" xlink:href="#C0_0_c4e53e5588" y="155.193752"/>
    </g>
    <g clip-path="url(#p8b6505a159)">
     <use style="fill:#fde725;stroke:#fde725;" x="213.33758" xlink:href="#C0_0_c4e53e5588" y="212.549202"/>
    </g>
    <g clip-path="url(#p8b6505a159)">
     <use style="fill:#440154;stroke:#440154;" x="161.269288" xlink:href="#C0_0_c4e53e5588" y="129.565037"/>
    </g>
    <g clip-path="url(#p8b6505a159)">
     <use style="fill:#440154;stroke:#440154;" x="189.79396" xlink:href="#C0_0_c4e53e5588" y="147.620343"/>
    </g>
    <g clip-path="url(#p8b6505a159)">
     <use style="fill:#440154;stroke:#440154;" x="136.743515" xlink:href="#C0_0_c4e53e5588" y="140.877999"/>
    </g>
    <g clip-path="url(#p8b6505a159)">
     <use style="fill:#440154;stroke:#440154;" x="151.825803" xlink:href="#C0_0_c4e53e5588" y="103.932923"/>
    </g>
    <g clip-path="url(#p8b6505a159)">
     <use style="fill:#fde725;stroke:#fde725;" x="180.538094" xlink:href="#C0_0_c4e53e5588" y="158.655114"/>
    </g>
    <g clip-path="url(#p8b6505a159)">
     <use style="fill:#440154;stroke:#440154;" x="297.021928" xlink:href="#C0_0_c4e53e5588" y="174.082581"/>
    </g>
    <g clip-path="url(#p8b6505a159)">
     <use style="fill:#440154;stroke:#440154;" x="266.901491" xlink:href="#C0_0_c4e53e5588" y="113.455445"/>
    </g>
    <g clip-path="url(#p8b6505a159)">
     <use style="fill:#440154;stroke:#440154;" x="243.027543" xlink:href="#C0_0_c4e53e5588" y="72.376625"/>
    </g>
    <g clip-path="url(#p8b6505a159)">
     <use style="fill:#440154;stroke:#440154;" x="222.229011" xlink:href="#C0_0_c4e53e5588" y="114.950914"/>
    </g>
    <g clip-path="url(#p8b6505a159)">
     <use style="fill:#440154;stroke:#440154;" x="162.881024" xlink:href="#C0_0_c4e53e5588" y="144.958919"/>
    </g>
    <g clip-path="url(#p8b6505a159)">
     <use style="fill:#440154;stroke:#440154;" x="187.588633" xlink:href="#C0_0_c4e53e5588" y="135.452353"/>
    </g>
    <g clip-path="url(#p8b6505a159)">
     <use style="fill:#440154;stroke:#440154;" x="148.895288" xlink:href="#C0_0_c4e53e5588" y="145.576025"/>
    </g>
    <g clip-path="url(#p8b6505a159)">
     <use style="fill:#fde725;stroke:#fde725;" x="159.42392" xlink:href="#C0_0_c4e53e5588" y="188.732918"/>
    </g>
    <g clip-path="url(#p8b6505a159)">
     <use style="fill:#440154;stroke:#440154;" x="181.32938" xlink:href="#C0_0_c4e53e5588" y="123.497045"/>
    </g>
    <g clip-path="url(#p8b6505a159)">
     <use style="fill:#440154;stroke:#440154;" x="69.218182" xlink:href="#C0_0_c4e53e5588" y="95.159841"/>
    </g>
    <g clip-path="url(#p8b6505a159)">
     <use style="fill:#fde725;stroke:#fde725;" x="211.794887" xlink:href="#C0_0_c4e53e5588" y="197.926777"/>
    </g>
    <g clip-path="url(#p8b6505a159)">
     <use style="fill:#fde725;stroke:#fde725;" x="158.932616" xlink:href="#C0_0_c4e53e5588" y="174.686239"/>
    </g>
    <g clip-path="url(#p8b6505a159)">
     <use style="fill:#fde725;stroke:#fde725;" x="105.451284" xlink:href="#C0_0_c4e53e5588" y="169.042656"/>
    </g>
    <g clip-path="url(#p8b6505a159)">
     <use style="fill:#fde725;stroke:#fde725;" x="97.756858" xlink:href="#C0_0_c4e53e5588" y="176.540332"/>
    </g>
    <g clip-path="url(#p8b6505a159)">
     <use style="fill:#fde725;stroke:#fde725;" x="184.339872" xlink:href="#C0_0_c4e53e5588" y="181.614039"/>
    </g>
    <g clip-path="url(#p8b6505a159)">
     <use style="fill:#fde725;stroke:#fde725;" x="193.889153" xlink:href="#C0_0_c4e53e5588" y="209.514298"/>
    </g>
    <g clip-path="url(#p8b6505a159)">
     <use style="fill:#fde725;stroke:#fde725;" x="123.085067" xlink:href="#C0_0_c4e53e5588" y="191.864652"/>
    </g>
    <g clip-path="url(#p8b6505a159)">
     <use style="fill:#fde725;stroke:#fde725;" x="131.955554" xlink:href="#C0_0_c4e53e5588" y="168.333001"/>
    </g>
    <g clip-path="url(#p8b6505a159)">
     <use style="fill:#fde725;stroke:#fde725;" x="128.817868" xlink:href="#C0_0_c4e53e5588" y="173.384719"/>
    </g>
    <g clip-path="url(#p8b6505a159)">
     <use style="fill:#fde725;stroke:#fde725;" x="155.714758" xlink:href="#C0_0_c4e53e5588" y="183.402091"/>
    </g>
    <g clip-path="url(#p8b6505a159)">
     <use style="fill:#fde725;stroke:#fde725;" x="109.782215" xlink:href="#C0_0_c4e53e5588" y="178.504473"/>
    </g>
    <g clip-path="url(#p8b6505a159)">
     <use style="fill:#fde725;stroke:#fde725;" x="147.444902" xlink:href="#C0_0_c4e53e5588" y="188.392983"/>
    </g>
    <g clip-path="url(#p8b6505a159)">
     <use style="fill:#fde725;stroke:#fde725;" x="146.348669" xlink:href="#C0_0_c4e53e5588" y="187.238471"/>
    </g>
    <g clip-path="url(#p8b6505a159)">
     <use style="fill:#fde725;stroke:#fde725;" x="141.126694" xlink:href="#C0_0_c4e53e5588" y="194.450576"/>
    </g>
    <g clip-path="url(#p8b6505a159)">
     <use style="fill:#fde725;stroke:#fde725;" x="142.530252" xlink:href="#C0_0_c4e53e5588" y="185.964996"/>
    </g>
    <g clip-path="url(#p8b6505a159)">
     <use style="fill:#fde725;stroke:#fde725;" x="137.7693" xlink:href="#C0_0_c4e53e5588" y="185.945724"/>
    </g>
    <g clip-path="url(#p8b6505a159)">
     <use style="fill:#fde725;stroke:#fde725;" x="144.811892" xlink:href="#C0_0_c4e53e5588" y="186.907545"/>
    </g>
    <g clip-path="url(#p8b6505a159)">
     <use style="fill:#fde725;stroke:#fde725;" x="145.935196" xlink:href="#C0_0_c4e53e5588" y="191.471368"/>
    </g>
    <g clip-path="url(#p8b6505a159)">
     <use style="fill:#fde725;stroke:#fde725;" x="129.255347" xlink:href="#C0_0_c4e53e5588" y="201.483724"/>
    </g>
    <g clip-path="url(#p8b6505a159)">
     <use style="fill:#fde725;stroke:#fde725;" x="149.938754" xlink:href="#C0_0_c4e53e5588" y="197.275873"/>
    </g>
    <g clip-path="url(#p8b6505a159)">
     <use style="fill:#fde725;stroke:#fde725;" x="152.217435" xlink:href="#C0_0_c4e53e5588" y="194.57548"/>
    </g>
    <g clip-path="url(#p8b6505a159)">
     <use style="fill:#fde725;stroke:#fde725;" x="138.95884" xlink:href="#C0_0_c4e53e5588" y="203.019138"/>
    </g>
    <g clip-path="url(#p8b6505a159)">
     <use style="fill:#fde725;stroke:#fde725;" x="150.674997" xlink:href="#C0_0_c4e53e5588" y="191.062677"/>
    </g>
    <g clip-path="url(#p8b6505a159)">
     <use style="fill:#fde725;stroke:#fde725;" x="152.991602" xlink:href="#C0_0_c4e53e5588" y="193.051192"/>
    </g>
    <g clip-path="url(#p8b6505a159)">
     <use style="fill:#fde725;stroke:#fde725;" x="147.444902" xlink:href="#C0_0_c4e53e5588" y="188.392983"/>
    </g>
    <g clip-path="url(#p8b6505a159)">
     <use style="fill:#fde725;stroke:#fde725;" x="147.604264" xlink:href="#C0_0_c4e53e5588" y="189.048064"/>
    </g>
    <g clip-path="url(#p8b6505a159)">
     <use style="fill:#fde725;stroke:#fde725;" x="147.611272" xlink:href="#C0_0_c4e53e5588" y="188.956223"/>
    </g>
    <g clip-path="url(#p8b6505a159)">
     <use style="fill:#fde725;stroke:#fde725;" x="148.935235" xlink:href="#C0_0_c4e53e5588" y="189.374845"/>
    </g>
    <g clip-path="url(#p8b6505a159)">
     <use style="fill:#fde725;stroke:#fde725;" x="137.656361" xlink:href="#C0_0_c4e53e5588" y="190.148366"/>
    </g>
    <g clip-path="url(#p8b6505a159)">
     <use style="fill:#fde725;stroke:#fde725;" x="142.832864" xlink:href="#C0_0_c4e53e5588" y="189.823923"/>
    </g>
    <g clip-path="url(#p8b6505a159)">
     <use style="fill:#fde725;stroke:#fde725;" x="141.257335" xlink:href="#C0_0_c4e53e5588" y="189.011987"/>
    </g>
    <g clip-path="url(#p8b6505a159)">
     <use style="fill:#fde725;stroke:#fde725;" x="141.104991" xlink:href="#C0_0_c4e53e5588" y="189.245284"/>
    </g>
    <g clip-path="url(#p8b6505a159)">
     <use style="fill:#fde725;stroke:#fde725;" x="146.02451" xlink:href="#C0_0_c4e53e5588" y="188.692389"/>
    </g>
    <g clip-path="url(#p8b6505a159)">
     <use style="fill:#fde725;stroke:#fde725;" x="146.474929" xlink:href="#C0_0_c4e53e5588" y="194.376296"/>
    </g>
   </g>
   <g id="matplotlib.axis_1">
    <g id="xtick_1">
     <g id="line2d_1">
      <defs>
       <path d="M 0 0 
L 0 3.5 
" id="mbfa265be8c" style="stroke:#000000;stroke-width:0.8;"/>
      </defs>
      <g>
       <use style="stroke:#000000;stroke-width:0.8;" x="74.143716" xlink:href="#mbfa265be8c" y="252"/>
      </g>
     </g>
     <g id="text_1">
      <!-- −15 -->
      <g transform="translate(63.591372 266.598437)scale(0.1 -0.1)">
       <defs>
        <path d="M 10.59375 35.5 
L 73.1875 35.5 
L 73.1875 27.203125 
L 10.59375 27.203125 
z
" id="DejaVuSans-8722"/>
        <path d="M 12.40625 8.296875 
L 28.515625 8.296875 
L 28.515625 63.921875 
L 10.984375 60.40625 
L 10.984375 69.390625 
L 28.421875 72.90625 
L 38.28125 72.90625 
L 38.28125 8.296875 
L 54.390625 8.296875 
L 54.390625 0 
L 12.40625 0 
z
" id="DejaVuSans-49"/>
        <path d="M 10.796875 72.90625 
L 49.515625 72.90625 
L 49.515625 64.59375 
L 19.828125 64.59375 
L 19.828125 46.734375 
Q 21.96875 47.46875 24.109375 47.828125 
Q 26.265625 48.1875 28.421875 48.1875 
Q 40.625 48.1875 47.75 41.5 
Q 54.890625 34.8125 54.890625 23.390625 
Q 54.890625 11.625 47.5625 5.09375 
Q 40.234375 -1.421875 26.90625 -1.421875 
Q 22.3125 -1.421875 17.546875 -0.640625 
Q 12.796875 0.140625 7.71875 1.703125 
L 7.71875 11.625 
Q 12.109375 9.234375 16.796875 8.0625 
Q 21.484375 6.890625 26.703125 6.890625 
Q 35.15625 6.890625 40.078125 11.328125 
Q 45.015625 15.765625 45.015625 23.390625 
Q 45.015625 31 40.078125 35.4375 
Q 35.15625 39.890625 26.703125 39.890625 
Q 22.75 39.890625 18.8125 39.015625 
Q 14.890625 38.140625 10.796875 36.28125 
z
" id="DejaVuSans-53"/>
       </defs>
       <use xlink:href="#DejaVuSans-8722"/>
       <use x="83.789062" xlink:href="#DejaVuSans-49"/>
       <use x="147.412109" xlink:href="#DejaVuSans-53"/>
      </g>
     </g>
    </g>
    <g id="xtick_2">
     <g id="line2d_2">
      <g>
       <use style="stroke:#000000;stroke-width:0.8;" x="112.185015" xlink:href="#mbfa265be8c" y="252"/>
      </g>
     </g>
     <g id="text_2">
      <!-- −10 -->
      <g transform="translate(101.632672 266.598437)scale(0.1 -0.1)">
       <defs>
        <path d="M 31.78125 66.40625 
Q 24.171875 66.40625 20.328125 58.90625 
Q 16.5 51.421875 16.5 36.375 
Q 16.5 21.390625 20.328125 13.890625 
Q 24.171875 6.390625 31.78125 6.390625 
Q 39.453125 6.390625 43.28125 13.890625 
Q 47.125 21.390625 47.125 36.375 
Q 47.125 51.421875 43.28125 58.90625 
Q 39.453125 66.40625 31.78125 66.40625 
z
M 31.78125 74.21875 
Q 44.046875 74.21875 50.515625 64.515625 
Q 56.984375 54.828125 56.984375 36.375 
Q 56.984375 17.96875 50.515625 8.265625 
Q 44.046875 -1.421875 31.78125 -1.421875 
Q 19.53125 -1.421875 13.0625 8.265625 
Q 6.59375 17.96875 6.59375 36.375 
Q 6.59375 54.828125 13.0625 64.515625 
Q 19.53125 74.21875 31.78125 74.21875 
z
" id="DejaVuSans-48"/>
       </defs>
       <use xlink:href="#DejaVuSans-8722"/>
       <use x="83.789062" xlink:href="#DejaVuSans-49"/>
       <use x="147.412109" xlink:href="#DejaVuSans-48"/>
      </g>
     </g>
    </g>
    <g id="xtick_3">
     <g id="line2d_3">
      <g>
       <use style="stroke:#000000;stroke-width:0.8;" x="150.226315" xlink:href="#mbfa265be8c" y="252"/>
      </g>
     </g>
     <g id="text_3">
      <!-- −5 -->
      <g transform="translate(142.855222 266.598437)scale(0.1 -0.1)">
       <use xlink:href="#DejaVuSans-8722"/>
       <use x="83.789062" xlink:href="#DejaVuSans-53"/>
      </g>
     </g>
    </g>
    <g id="xtick_4">
     <g id="line2d_4">
      <g>
       <use style="stroke:#000000;stroke-width:0.8;" x="188.267615" xlink:href="#mbfa265be8c" y="252"/>
      </g>
     </g>
     <g id="text_4">
      <!-- 0 -->
      <g transform="translate(185.086365 266.598437)scale(0.1 -0.1)">
       <use xlink:href="#DejaVuSans-48"/>
      </g>
     </g>
    </g>
    <g id="xtick_5">
     <g id="line2d_5">
      <g>
       <use style="stroke:#000000;stroke-width:0.8;" x="226.308915" xlink:href="#mbfa265be8c" y="252"/>
      </g>
     </g>
     <g id="text_5">
      <!-- 5 -->
      <g transform="translate(223.127665 266.598437)scale(0.1 -0.1)">
       <use xlink:href="#DejaVuSans-53"/>
      </g>
     </g>
    </g>
    <g id="xtick_6">
     <g id="line2d_6">
      <g>
       <use style="stroke:#000000;stroke-width:0.8;" x="264.350215" xlink:href="#mbfa265be8c" y="252"/>
      </g>
     </g>
     <g id="text_6">
      <!-- 10 -->
      <g transform="translate(257.987715 266.598437)scale(0.1 -0.1)">
       <use xlink:href="#DejaVuSans-49"/>
       <use x="63.623047" xlink:href="#DejaVuSans-48"/>
      </g>
     </g>
    </g>
    <g id="xtick_7">
     <g id="line2d_7">
      <g>
       <use style="stroke:#000000;stroke-width:0.8;" x="302.391515" xlink:href="#mbfa265be8c" y="252"/>
      </g>
     </g>
     <g id="text_7">
      <!-- 15 -->
      <g transform="translate(296.029015 266.598437)scale(0.1 -0.1)">
       <use xlink:href="#DejaVuSans-49"/>
       <use x="63.623047" xlink:href="#DejaVuSans-53"/>
      </g>
     </g>
    </g>
    <g id="xtick_8">
     <g id="line2d_8">
      <g>
       <use style="stroke:#000000;stroke-width:0.8;" x="340.432815" xlink:href="#mbfa265be8c" y="252"/>
      </g>
     </g>
     <g id="text_8">
      <!-- 20 -->
      <g transform="translate(334.070315 266.598437)scale(0.1 -0.1)">
       <defs>
        <path d="M 19.1875 8.296875 
L 53.609375 8.296875 
L 53.609375 0 
L 7.328125 0 
L 7.328125 8.296875 
Q 12.9375 14.109375 22.625 23.890625 
Q 32.328125 33.6875 34.8125 36.53125 
Q 39.546875 41.84375 41.421875 45.53125 
Q 43.3125 49.21875 43.3125 52.78125 
Q 43.3125 58.59375 39.234375 62.25 
Q 35.15625 65.921875 28.609375 65.921875 
Q 23.96875 65.921875 18.8125 64.3125 
Q 13.671875 62.703125 7.8125 59.421875 
L 7.8125 69.390625 
Q 13.765625 71.78125 18.9375 73 
Q 24.125 74.21875 28.421875 74.21875 
Q 39.75 74.21875 46.484375 68.546875 
Q 53.21875 62.890625 53.21875 53.421875 
Q 53.21875 48.921875 51.53125 44.890625 
Q 49.859375 40.875 45.40625 35.40625 
Q 44.1875 33.984375 37.640625 27.21875 
Q 31.109375 20.453125 19.1875 8.296875 
z
" id="DejaVuSans-50"/>
       </defs>
       <use xlink:href="#DejaVuSans-50"/>
       <use x="63.623047" xlink:href="#DejaVuSans-48"/>
      </g>
     </g>
    </g>
    <g id="xtick_9">
     <g id="line2d_9">
      <g>
       <use style="stroke:#000000;stroke-width:0.8;" x="378.474115" xlink:href="#mbfa265be8c" y="252"/>
      </g>
     </g>
     <g id="text_9">
      <!-- 25 -->
      <g transform="translate(372.111615 266.598437)scale(0.1 -0.1)">
       <use xlink:href="#DejaVuSans-50"/>
       <use x="63.623047" xlink:href="#DejaVuSans-53"/>
      </g>
     </g>
    </g>
   </g>
   <g id="matplotlib.axis_2">
    <g id="ytick_1">
     <g id="line2d_10">
      <defs>
       <path d="M 0 0 
L -3.5 0 
" id="mba419cd650" style="stroke:#000000;stroke-width:0.8;"/>
      </defs>
      <g>
       <use style="stroke:#000000;stroke-width:0.8;" x="54" xlink:href="#mba419cd650" y="240.204016"/>
      </g>
     </g>
     <g id="text_10">
      <!-- −15 -->
      <g transform="translate(25.895312 244.003235)scale(0.1 -0.1)">
       <use xlink:href="#DejaVuSans-8722"/>
       <use x="83.789062" xlink:href="#DejaVuSans-49"/>
       <use x="147.412109" xlink:href="#DejaVuSans-53"/>
      </g>
     </g>
    </g>
    <g id="ytick_2">
     <g id="line2d_11">
      <g>
       <use style="stroke:#000000;stroke-width:0.8;" x="54" xlink:href="#mba419cd650" y="213.720172"/>
      </g>
     </g>
     <g id="text_11">
      <!-- −10 -->
      <g transform="translate(25.895312 217.51939)scale(0.1 -0.1)">
       <use xlink:href="#DejaVuSans-8722"/>
       <use x="83.789062" xlink:href="#DejaVuSans-49"/>
       <use x="147.412109" xlink:href="#DejaVuSans-48"/>
      </g>
     </g>
    </g>
    <g id="ytick_3">
     <g id="line2d_12">
      <g>
       <use style="stroke:#000000;stroke-width:0.8;" x="54" xlink:href="#mba419cd650" y="187.236327"/>
      </g>
     </g>
     <g id="text_12">
      <!-- −5 -->
      <g transform="translate(32.257812 191.035546)scale(0.1 -0.1)">
       <use xlink:href="#DejaVuSans-8722"/>
       <use x="83.789062" xlink:href="#DejaVuSans-53"/>
      </g>
     </g>
    </g>
    <g id="ytick_4">
     <g id="line2d_13">
      <g>
       <use style="stroke:#000000;stroke-width:0.8;" x="54" xlink:href="#mba419cd650" y="160.752482"/>
      </g>
     </g>
     <g id="text_13">
      <!-- 0 -->
      <g transform="translate(40.6375 164.551701)scale(0.1 -0.1)">
       <use xlink:href="#DejaVuSans-48"/>
      </g>
     </g>
    </g>
    <g id="ytick_5">
     <g id="line2d_14">
      <g>
       <use style="stroke:#000000;stroke-width:0.8;" x="54" xlink:href="#mba419cd650" y="134.268638"/>
      </g>
     </g>
     <g id="text_14">
      <!-- 5 -->
      <g transform="translate(40.6375 138.067856)scale(0.1 -0.1)">
       <use xlink:href="#DejaVuSans-53"/>
      </g>
     </g>
    </g>
    <g id="ytick_6">
     <g id="line2d_15">
      <g>
       <use style="stroke:#000000;stroke-width:0.8;" x="54" xlink:href="#mba419cd650" y="107.784793"/>
      </g>
     </g>
     <g id="text_15">
      <!-- 10 -->
      <g transform="translate(34.275 111.584012)scale(0.1 -0.1)">
       <use xlink:href="#DejaVuSans-49"/>
       <use x="63.623047" xlink:href="#DejaVuSans-48"/>
      </g>
     </g>
    </g>
    <g id="ytick_7">
     <g id="line2d_16">
      <g>
       <use style="stroke:#000000;stroke-width:0.8;" x="54" xlink:href="#mba419cd650" y="81.300948"/>
      </g>
     </g>
     <g id="text_16">
      <!-- 15 -->
      <g transform="translate(34.275 85.100167)scale(0.1 -0.1)">
       <use xlink:href="#DejaVuSans-49"/>
       <use x="63.623047" xlink:href="#DejaVuSans-53"/>
      </g>
     </g>
    </g>
    <g id="ytick_8">
     <g id="line2d_17">
      <g>
       <use style="stroke:#000000;stroke-width:0.8;" x="54" xlink:href="#mba419cd650" y="54.817103"/>
      </g>
     </g>
     <g id="text_17">
      <!-- 20 -->
      <g transform="translate(34.275 58.616322)scale(0.1 -0.1)">
       <use xlink:href="#DejaVuSans-50"/>
       <use x="63.623047" xlink:href="#DejaVuSans-48"/>
      </g>
     </g>
    </g>
   </g>
   <g id="patch_3">
    <path d="M 54 252 
L 54 34.56 
" style="fill:none;stroke:#000000;stroke-linecap:square;stroke-linejoin:miter;stroke-width:0.8;"/>
   </g>
   <g id="patch_4">
    <path d="M 388.8 252 
L 388.8 34.56 
" style="fill:none;stroke:#000000;stroke-linecap:square;stroke-linejoin:miter;stroke-width:0.8;"/>
   </g>
   <g id="patch_5">
    <path d="M 54 252 
L 388.8 252 
" style="fill:none;stroke:#000000;stroke-linecap:square;stroke-linejoin:miter;stroke-width:0.8;"/>
   </g>
   <g id="patch_6">
    <path d="M 54 34.56 
L 388.8 34.56 
" style="fill:none;stroke:#000000;stroke-linecap:square;stroke-linejoin:miter;stroke-width:0.8;"/>
   </g>
   <g id="text_18">
    <!-- Estimated number of clusters: 2 -->
    <g transform="translate(124.892813 28.56)scale(0.12 -0.12)">
     <defs>
      <path d="M 9.8125 72.90625 
L 55.90625 72.90625 
L 55.90625 64.59375 
L 19.671875 64.59375 
L 19.671875 43.015625 
L 54.390625 43.015625 
L 54.390625 34.71875 
L 19.671875 34.71875 
L 19.671875 8.296875 
L 56.78125 8.296875 
L 56.78125 0 
L 9.8125 0 
z
" id="DejaVuSans-69"/>
      <path d="M 44.28125 53.078125 
L 44.28125 44.578125 
Q 40.484375 46.53125 36.375 47.5 
Q 32.28125 48.484375 27.875 48.484375 
Q 21.1875 48.484375 17.84375 46.4375 
Q 14.5 44.390625 14.5 40.28125 
Q 14.5 37.15625 16.890625 35.375 
Q 19.28125 33.59375 26.515625 31.984375 
L 29.59375 31.296875 
Q 39.15625 29.25 43.1875 25.515625 
Q 47.21875 21.78125 47.21875 15.09375 
Q 47.21875 7.46875 41.1875 3.015625 
Q 35.15625 -1.421875 24.609375 -1.421875 
Q 20.21875 -1.421875 15.453125 -0.5625 
Q 10.6875 0.296875 5.421875 2 
L 5.421875 11.28125 
Q 10.40625 8.6875 15.234375 7.390625 
Q 20.0625 6.109375 24.8125 6.109375 
Q 31.15625 6.109375 34.5625 8.28125 
Q 37.984375 10.453125 37.984375 14.40625 
Q 37.984375 18.0625 35.515625 20.015625 
Q 33.0625 21.96875 24.703125 23.78125 
L 21.578125 24.515625 
Q 13.234375 26.265625 9.515625 29.90625 
Q 5.8125 33.546875 5.8125 39.890625 
Q 5.8125 47.609375 11.28125 51.796875 
Q 16.75 56 26.8125 56 
Q 31.78125 56 36.171875 55.265625 
Q 40.578125 54.546875 44.28125 53.078125 
z
" id="DejaVuSans-115"/>
      <path d="M 18.3125 70.21875 
L 18.3125 54.6875 
L 36.8125 54.6875 
L 36.8125 47.703125 
L 18.3125 47.703125 
L 18.3125 18.015625 
Q 18.3125 11.328125 20.140625 9.421875 
Q 21.96875 7.515625 27.59375 7.515625 
L 36.8125 7.515625 
L 36.8125 0 
L 27.59375 0 
Q 17.1875 0 13.234375 3.875 
Q 9.28125 7.765625 9.28125 18.015625 
L 9.28125 47.703125 
L 2.6875 47.703125 
L 2.6875 54.6875 
L 9.28125 54.6875 
L 9.28125 70.21875 
z
" id="DejaVuSans-116"/>
      <path d="M 9.421875 54.6875 
L 18.40625 54.6875 
L 18.40625 0 
L 9.421875 0 
z
M 9.421875 75.984375 
L 18.40625 75.984375 
L 18.40625 64.59375 
L 9.421875 64.59375 
z
" id="DejaVuSans-105"/>
      <path d="M 52 44.1875 
Q 55.375 50.25 60.0625 53.125 
Q 64.75 56 71.09375 56 
Q 79.640625 56 84.28125 50.015625 
Q 88.921875 44.046875 88.921875 33.015625 
L 88.921875 0 
L 79.890625 0 
L 79.890625 32.71875 
Q 79.890625 40.578125 77.09375 44.375 
Q 74.3125 48.1875 68.609375 48.1875 
Q 61.625 48.1875 57.5625 43.546875 
Q 53.515625 38.921875 53.515625 30.90625 
L 53.515625 0 
L 44.484375 0 
L 44.484375 32.71875 
Q 44.484375 40.625 41.703125 44.40625 
Q 38.921875 48.1875 33.109375 48.1875 
Q 26.21875 48.1875 22.15625 43.53125 
Q 18.109375 38.875 18.109375 30.90625 
L 18.109375 0 
L 9.078125 0 
L 9.078125 54.6875 
L 18.109375 54.6875 
L 18.109375 46.1875 
Q 21.1875 51.21875 25.484375 53.609375 
Q 29.78125 56 35.6875 56 
Q 41.65625 56 45.828125 52.96875 
Q 50 49.953125 52 44.1875 
z
" id="DejaVuSans-109"/>
      <path d="M 34.28125 27.484375 
Q 23.390625 27.484375 19.1875 25 
Q 14.984375 22.515625 14.984375 16.5 
Q 14.984375 11.71875 18.140625 8.90625 
Q 21.296875 6.109375 26.703125 6.109375 
Q 34.1875 6.109375 38.703125 11.40625 
Q 43.21875 16.703125 43.21875 25.484375 
L 43.21875 27.484375 
z
M 52.203125 31.203125 
L 52.203125 0 
L 43.21875 0 
L 43.21875 8.296875 
Q 40.140625 3.328125 35.546875 0.953125 
Q 30.953125 -1.421875 24.3125 -1.421875 
Q 15.921875 -1.421875 10.953125 3.296875 
Q 6 8.015625 6 15.921875 
Q 6 25.140625 12.171875 29.828125 
Q 18.359375 34.515625 30.609375 34.515625 
L 43.21875 34.515625 
L 43.21875 35.40625 
Q 43.21875 41.609375 39.140625 45 
Q 35.0625 48.390625 27.6875 48.390625 
Q 23 48.390625 18.546875 47.265625 
Q 14.109375 46.140625 10.015625 43.890625 
L 10.015625 52.203125 
Q 14.9375 54.109375 19.578125 55.046875 
Q 24.21875 56 28.609375 56 
Q 40.484375 56 46.34375 49.84375 
Q 52.203125 43.703125 52.203125 31.203125 
z
" id="DejaVuSans-97"/>
      <path d="M 56.203125 29.59375 
L 56.203125 25.203125 
L 14.890625 25.203125 
Q 15.484375 15.921875 20.484375 11.0625 
Q 25.484375 6.203125 34.421875 6.203125 
Q 39.59375 6.203125 44.453125 7.46875 
Q 49.3125 8.734375 54.109375 11.28125 
L 54.109375 2.78125 
Q 49.265625 0.734375 44.1875 -0.34375 
Q 39.109375 -1.421875 33.890625 -1.421875 
Q 20.796875 -1.421875 13.15625 6.1875 
Q 5.515625 13.8125 5.515625 26.8125 
Q 5.515625 40.234375 12.765625 48.109375 
Q 20.015625 56 32.328125 56 
Q 43.359375 56 49.78125 48.890625 
Q 56.203125 41.796875 56.203125 29.59375 
z
M 47.21875 32.234375 
Q 47.125 39.59375 43.09375 43.984375 
Q 39.0625 48.390625 32.421875 48.390625 
Q 24.90625 48.390625 20.390625 44.140625 
Q 15.875 39.890625 15.1875 32.171875 
z
" id="DejaVuSans-101"/>
      <path d="M 45.40625 46.390625 
L 45.40625 75.984375 
L 54.390625 75.984375 
L 54.390625 0 
L 45.40625 0 
L 45.40625 8.203125 
Q 42.578125 3.328125 38.25 0.953125 
Q 33.9375 -1.421875 27.875 -1.421875 
Q 17.96875 -1.421875 11.734375 6.484375 
Q 5.515625 14.40625 5.515625 27.296875 
Q 5.515625 40.1875 11.734375 48.09375 
Q 17.96875 56 27.875 56 
Q 33.9375 56 38.25 53.625 
Q 42.578125 51.265625 45.40625 46.390625 
z
M 14.796875 27.296875 
Q 14.796875 17.390625 18.875 11.75 
Q 22.953125 6.109375 30.078125 6.109375 
Q 37.203125 6.109375 41.296875 11.75 
Q 45.40625 17.390625 45.40625 27.296875 
Q 45.40625 37.203125 41.296875 42.84375 
Q 37.203125 48.484375 30.078125 48.484375 
Q 22.953125 48.484375 18.875 42.84375 
Q 14.796875 37.203125 14.796875 27.296875 
z
" id="DejaVuSans-100"/>
      <path id="DejaVuSans-32"/>
      <path d="M 54.890625 33.015625 
L 54.890625 0 
L 45.90625 0 
L 45.90625 32.71875 
Q 45.90625 40.484375 42.875 44.328125 
Q 39.84375 48.1875 33.796875 48.1875 
Q 26.515625 48.1875 22.3125 43.546875 
Q 18.109375 38.921875 18.109375 30.90625 
L 18.109375 0 
L 9.078125 0 
L 9.078125 54.6875 
L 18.109375 54.6875 
L 18.109375 46.1875 
Q 21.34375 51.125 25.703125 53.5625 
Q 30.078125 56 35.796875 56 
Q 45.21875 56 50.046875 50.171875 
Q 54.890625 44.34375 54.890625 33.015625 
z
" id="DejaVuSans-110"/>
      <path d="M 8.5 21.578125 
L 8.5 54.6875 
L 17.484375 54.6875 
L 17.484375 21.921875 
Q 17.484375 14.15625 20.5 10.265625 
Q 23.53125 6.390625 29.59375 6.390625 
Q 36.859375 6.390625 41.078125 11.03125 
Q 45.3125 15.671875 45.3125 23.6875 
L 45.3125 54.6875 
L 54.296875 54.6875 
L 54.296875 0 
L 45.3125 0 
L 45.3125 8.40625 
Q 42.046875 3.421875 37.71875 1 
Q 33.40625 -1.421875 27.6875 -1.421875 
Q 18.265625 -1.421875 13.375 4.4375 
Q 8.5 10.296875 8.5 21.578125 
z
M 31.109375 56 
z
" id="DejaVuSans-117"/>
      <path d="M 48.6875 27.296875 
Q 48.6875 37.203125 44.609375 42.84375 
Q 40.53125 48.484375 33.40625 48.484375 
Q 26.265625 48.484375 22.1875 42.84375 
Q 18.109375 37.203125 18.109375 27.296875 
Q 18.109375 17.390625 22.1875 11.75 
Q 26.265625 6.109375 33.40625 6.109375 
Q 40.53125 6.109375 44.609375 11.75 
Q 48.6875 17.390625 48.6875 27.296875 
z
M 18.109375 46.390625 
Q 20.953125 51.265625 25.265625 53.625 
Q 29.59375 56 35.59375 56 
Q 45.5625 56 51.78125 48.09375 
Q 58.015625 40.1875 58.015625 27.296875 
Q 58.015625 14.40625 51.78125 6.484375 
Q 45.5625 -1.421875 35.59375 -1.421875 
Q 29.59375 -1.421875 25.265625 0.953125 
Q 20.953125 3.328125 18.109375 8.203125 
L 18.109375 0 
L 9.078125 0 
L 9.078125 75.984375 
L 18.109375 75.984375 
z
" id="DejaVuSans-98"/>
      <path d="M 41.109375 46.296875 
Q 39.59375 47.171875 37.8125 47.578125 
Q 36.03125 48 33.890625 48 
Q 26.265625 48 22.1875 43.046875 
Q 18.109375 38.09375 18.109375 28.8125 
L 18.109375 0 
L 9.078125 0 
L 9.078125 54.6875 
L 18.109375 54.6875 
L 18.109375 46.1875 
Q 20.953125 51.171875 25.484375 53.578125 
Q 30.03125 56 36.53125 56 
Q 37.453125 56 38.578125 55.875 
Q 39.703125 55.765625 41.0625 55.515625 
z
" id="DejaVuSans-114"/>
      <path d="M 30.609375 48.390625 
Q 23.390625 48.390625 19.1875 42.75 
Q 14.984375 37.109375 14.984375 27.296875 
Q 14.984375 17.484375 19.15625 11.84375 
Q 23.34375 6.203125 30.609375 6.203125 
Q 37.796875 6.203125 41.984375 11.859375 
Q 46.1875 17.53125 46.1875 27.296875 
Q 46.1875 37.015625 41.984375 42.703125 
Q 37.796875 48.390625 30.609375 48.390625 
z
M 30.609375 56 
Q 42.328125 56 49.015625 48.375 
Q 55.71875 40.765625 55.71875 27.296875 
Q 55.71875 13.875 49.015625 6.21875 
Q 42.328125 -1.421875 30.609375 -1.421875 
Q 18.84375 -1.421875 12.171875 6.21875 
Q 5.515625 13.875 5.515625 27.296875 
Q 5.515625 40.765625 12.171875 48.375 
Q 18.84375 56 30.609375 56 
z
" id="DejaVuSans-111"/>
      <path d="M 37.109375 75.984375 
L 37.109375 68.5 
L 28.515625 68.5 
Q 23.6875 68.5 21.796875 66.546875 
Q 19.921875 64.59375 19.921875 59.515625 
L 19.921875 54.6875 
L 34.71875 54.6875 
L 34.71875 47.703125 
L 19.921875 47.703125 
L 19.921875 0 
L 10.890625 0 
L 10.890625 47.703125 
L 2.296875 47.703125 
L 2.296875 54.6875 
L 10.890625 54.6875 
L 10.890625 58.5 
Q 10.890625 67.625 15.140625 71.796875 
Q 19.390625 75.984375 28.609375 75.984375 
z
" id="DejaVuSans-102"/>
      <path d="M 48.78125 52.59375 
L 48.78125 44.1875 
Q 44.96875 46.296875 41.140625 47.34375 
Q 37.3125 48.390625 33.40625 48.390625 
Q 24.65625 48.390625 19.8125 42.84375 
Q 14.984375 37.3125 14.984375 27.296875 
Q 14.984375 17.28125 19.8125 11.734375 
Q 24.65625 6.203125 33.40625 6.203125 
Q 37.3125 6.203125 41.140625 7.25 
Q 44.96875 8.296875 48.78125 10.40625 
L 48.78125 2.09375 
Q 45.015625 0.34375 40.984375 -0.53125 
Q 36.96875 -1.421875 32.421875 -1.421875 
Q 20.0625 -1.421875 12.78125 6.34375 
Q 5.515625 14.109375 5.515625 27.296875 
Q 5.515625 40.671875 12.859375 48.328125 
Q 20.21875 56 33.015625 56 
Q 37.15625 56 41.109375 55.140625 
Q 45.0625 54.296875 48.78125 52.59375 
z
" id="DejaVuSans-99"/>
      <path d="M 9.421875 75.984375 
L 18.40625 75.984375 
L 18.40625 0 
L 9.421875 0 
z
" id="DejaVuSans-108"/>
      <path d="M 11.71875 12.40625 
L 22.015625 12.40625 
L 22.015625 0 
L 11.71875 0 
z
M 11.71875 51.703125 
L 22.015625 51.703125 
L 22.015625 39.3125 
L 11.71875 39.3125 
z
" id="DejaVuSans-58"/>
     </defs>
     <use xlink:href="#DejaVuSans-69"/>
     <use x="63.183594" xlink:href="#DejaVuSans-115"/>
     <use x="115.283203" xlink:href="#DejaVuSans-116"/>
     <use x="154.492188" xlink:href="#DejaVuSans-105"/>
     <use x="182.275391" xlink:href="#DejaVuSans-109"/>
     <use x="279.6875" xlink:href="#DejaVuSans-97"/>
     <use x="340.966797" xlink:href="#DejaVuSans-116"/>
     <use x="380.175781" xlink:href="#DejaVuSans-101"/>
     <use x="441.699219" xlink:href="#DejaVuSans-100"/>
     <use x="505.175781" xlink:href="#DejaVuSans-32"/>
     <use x="536.962891" xlink:href="#DejaVuSans-110"/>
     <use x="600.341797" xlink:href="#DejaVuSans-117"/>
     <use x="663.720703" xlink:href="#DejaVuSans-109"/>
     <use x="761.132812" xlink:href="#DejaVuSans-98"/>
     <use x="824.609375" xlink:href="#DejaVuSans-101"/>
     <use x="886.132812" xlink:href="#DejaVuSans-114"/>
     <use x="927.246094" xlink:href="#DejaVuSans-32"/>
     <use x="959.033203" xlink:href="#DejaVuSans-111"/>
     <use x="1020.214844" xlink:href="#DejaVuSans-102"/>
     <use x="1055.419922" xlink:href="#DejaVuSans-32"/>
     <use x="1087.207031" xlink:href="#DejaVuSans-99"/>
     <use x="1142.1875" xlink:href="#DejaVuSans-108"/>
     <use x="1169.970703" xlink:href="#DejaVuSans-117"/>
     <use x="1233.349609" xlink:href="#DejaVuSans-115"/>
     <use x="1285.449219" xlink:href="#DejaVuSans-116"/>
     <use x="1324.658203" xlink:href="#DejaVuSans-101"/>
     <use x="1386.181641" xlink:href="#DejaVuSans-114"/>
     <use x="1427.294922" xlink:href="#DejaVuSans-115"/>
     <use x="1479.394531" xlink:href="#DejaVuSans-58"/>
     <use x="1513.085938" xlink:href="#DejaVuSans-32"/>
     <use x="1544.873047" xlink:href="#DejaVuSans-50"/>
    </g>
   </g>
  </g>
 </g>
 <defs>
  <clipPath id="p8b6505a159">
   <rect height="217.44" width="334.8" x="54" y="34.56"/>
  </clipPath>
 </defs>
</svg>
