<?xml version="1.0" encoding="utf-8" standalone="no"?>
<!DOCTYPE svg PUBLIC "-//W3C//DTD SVG 1.1//EN"
  "http://www.w3.org/Graphics/SVG/1.1/DTD/svg11.dtd">
<!-- Created with matplotlib (https://matplotlib.org/) -->
<svg height="288pt" version="1.1" viewBox="0 0 432 288" width="432pt" xmlns="http://www.w3.org/2000/svg" xmlns:xlink="http://www.w3.org/1999/xlink">
 <metadata>
  <rdf:RDF xmlns:cc="http://creativecommons.org/ns#" xmlns:dc="http://purl.org/dc/elements/1.1/" xmlns:rdf="http://www.w3.org/1999/02/22-rdf-syntax-ns#">
   <cc:Work>
    <dc:type rdf:resource="http://purl.org/dc/dcmitype/StillImage"/>
    <dc:date>2021-05-14T08:11:16.768726</dc:date>
    <dc:format>image/svg+xml</dc:format>
    <dc:creator>
     <cc:Agent>
      <dc:title>Matplotlib v3.3.4, https://matplotlib.org/</dc:title>
     </cc:Agent>
    </dc:creator>
   </cc:Work>
  </rdf:RDF>
 </metadata>
 <defs>
  <style type="text/css">*{stroke-linecap:butt;stroke-linejoin:round;}</style>
 </defs>
 <g id="figure_1">
  <g id="patch_1">
   <path d="M 0 288 
L 432 288 
L 432 0 
L 0 0 
z
" style="fill:none;"/>
  </g>
  <g id="axes_1">
   <g id="patch_2">
    <path d="M 54 252 
L 388.8 252 
L 388.8 34.56 
L 54 34.56 
z
" style="fill:#ffffff;"/>
   </g>
   <g id="PathCollection_1">
    <defs>
     <path d="M 0 3 
C 0.795609 3 1.55874 2.683901 2.12132 2.12132 
C 2.683901 1.55874 3 0.795609 3 -0 
C 3 -0.795609 2.683901 -1.55874 2.12132 -2.12132 
C 1.55874 -2.683901 0.795609 -3 0 -3 
C -0.795609 -3 -1.55874 -2.683901 -2.12132 -2.12132 
C -2.683901 -1.55874 -3 -0.795609 -3 0 
C -3 0.795609 -2.683901 1.55874 -2.12132 2.12132 
C -1.55874 2.683901 -0.795609 3 0 3 
z
" id="C0_0_f53f4d56db"/>
    </defs>
    <g clip-path="url(#pf8389faf2e)">
     <use style="fill:#fde725;stroke:#fde725;" x="214.107561" xlink:href="#C0_0_f53f4d56db" y="222.842161"/>
    </g>
    <g clip-path="url(#pf8389faf2e)">
     <use style="fill:#fde725;stroke:#fde725;" x="209.179864" xlink:href="#C0_0_f53f4d56db" y="206.338538"/>
    </g>
    <g clip-path="url(#pf8389faf2e)">
     <use style="fill:#fde725;stroke:#fde725;" x="177.377683" xlink:href="#C0_0_f53f4d56db" y="225.466708"/>
    </g>
    <g clip-path="url(#pf8389faf2e)">
     <use style="fill:#440154;stroke:#440154;" x="137.71025" xlink:href="#C0_0_f53f4d56db" y="184.565477"/>
    </g>
    <g clip-path="url(#pf8389faf2e)">
     <use style="fill:#fde725;stroke:#fde725;" x="218.992928" xlink:href="#C0_0_f53f4d56db" y="232.934789"/>
    </g>
    <g clip-path="url(#pf8389faf2e)">
     <use style="fill:#fde725;stroke:#fde725;" x="208.966403" xlink:href="#C0_0_f53f4d56db" y="225.725662"/>
    </g>
    <g clip-path="url(#pf8389faf2e)">
     <use style="fill:#fde725;stroke:#fde725;" x="248.669476" xlink:href="#C0_0_f53f4d56db" y="212.185718"/>
    </g>
    <g clip-path="url(#pf8389faf2e)">
     <use style="fill:#fde725;stroke:#fde725;" x="210.538835" xlink:href="#C0_0_f53f4d56db" y="228.671459"/>
    </g>
    <g clip-path="url(#pf8389faf2e)">
     <use style="fill:#fde725;stroke:#fde725;" x="172.16231" xlink:href="#C0_0_f53f4d56db" y="206.58044"/>
    </g>
    <g clip-path="url(#pf8389faf2e)">
     <use style="fill:#fde725;stroke:#fde725;" x="147.70644" xlink:href="#C0_0_f53f4d56db" y="190.505657"/>
    </g>
    <g clip-path="url(#pf8389faf2e)">
     <use style="fill:#fde725;stroke:#fde725;" x="163.28081" xlink:href="#C0_0_f53f4d56db" y="205.183163"/>
    </g>
    <g clip-path="url(#pf8389faf2e)">
     <use style="fill:#fde725;stroke:#fde725;" x="185.49458" xlink:href="#C0_0_f53f4d56db" y="216.562307"/>
    </g>
    <g clip-path="url(#pf8389faf2e)">
     <use style="fill:#fde725;stroke:#fde725;" x="243.18041" xlink:href="#C0_0_f53f4d56db" y="242.116364"/>
    </g>
    <g clip-path="url(#pf8389faf2e)">
     <use style="fill:#fde725;stroke:#fde725;" x="167.144263" xlink:href="#C0_0_f53f4d56db" y="216.262674"/>
    </g>
    <g clip-path="url(#pf8389faf2e)">
     <use style="fill:#fde725;stroke:#fde725;" x="210.424708" xlink:href="#C0_0_f53f4d56db" y="206.741095"/>
    </g>
    <g clip-path="url(#pf8389faf2e)">
     <use style="fill:#fde725;stroke:#fde725;" x="197.74101" xlink:href="#C0_0_f53f4d56db" y="219.193865"/>
    </g>
    <g clip-path="url(#pf8389faf2e)">
     <use style="fill:#fde725;stroke:#fde725;" x="167.735168" xlink:href="#C0_0_f53f4d56db" y="209.38173"/>
    </g>
    <g clip-path="url(#pf8389faf2e)">
     <use style="fill:#fde725;stroke:#fde725;" x="183.347307" xlink:href="#C0_0_f53f4d56db" y="216.917634"/>
    </g>
    <g clip-path="url(#pf8389faf2e)">
     <use style="fill:#fde725;stroke:#fde725;" x="186.10151" xlink:href="#C0_0_f53f4d56db" y="191.003864"/>
    </g>
    <g clip-path="url(#pf8389faf2e)">
     <use style="fill:#fde725;stroke:#fde725;" x="144.441542" xlink:href="#C0_0_f53f4d56db" y="195.694152"/>
    </g>
    <g clip-path="url(#pf8389faf2e)">
     <use style="fill:#fde725;stroke:#fde725;" x="183.021578" xlink:href="#C0_0_f53f4d56db" y="224.337906"/>
    </g>
    <g clip-path="url(#pf8389faf2e)">
     <use style="fill:#fde725;stroke:#fde725;" x="191.526419" xlink:href="#C0_0_f53f4d56db" y="226.648781"/>
    </g>
    <g clip-path="url(#pf8389faf2e)">
     <use style="fill:#fde725;stroke:#fde725;" x="180.506312" xlink:href="#C0_0_f53f4d56db" y="219.927611"/>
    </g>
    <g clip-path="url(#pf8389faf2e)">
     <use style="fill:#fde725;stroke:#fde725;" x="205.557435" xlink:href="#C0_0_f53f4d56db" y="218.857485"/>
    </g>
    <g clip-path="url(#pf8389faf2e)">
     <use style="fill:#fde725;stroke:#fde725;" x="334.048824" xlink:href="#C0_0_f53f4d56db" y="136.189513"/>
    </g>
    <g clip-path="url(#pf8389faf2e)">
     <use style="fill:#fde725;stroke:#fde725;" x="336.957572" xlink:href="#C0_0_f53f4d56db" y="127.231372"/>
    </g>
    <g clip-path="url(#pf8389faf2e)">
     <use style="fill:#fde725;stroke:#fde725;" x="334.925568" xlink:href="#C0_0_f53f4d56db" y="139.555028"/>
    </g>
    <g clip-path="url(#pf8389faf2e)">
     <use style="fill:#fde725;stroke:#fde725;" x="221.330054" xlink:href="#C0_0_f53f4d56db" y="120.256799"/>
    </g>
    <g clip-path="url(#pf8389faf2e)">
     <use style="fill:#440154;stroke:#440154;" x="131.878162" xlink:href="#C0_0_f53f4d56db" y="113.744613"/>
    </g>
    <g clip-path="url(#pf8389faf2e)">
     <use style="fill:#fde725;stroke:#fde725;" x="274.150658" xlink:href="#C0_0_f53f4d56db" y="44.443636"/>
    </g>
    <g clip-path="url(#pf8389faf2e)">
     <use style="fill:#fde725;stroke:#fde725;" x="286.14671" xlink:href="#C0_0_f53f4d56db" y="143.385328"/>
    </g>
    <g clip-path="url(#pf8389faf2e)">
     <use style="fill:#440154;stroke:#440154;" x="129.785732" xlink:href="#C0_0_f53f4d56db" y="116.527125"/>
    </g>
    <g clip-path="url(#pf8389faf2e)">
     <use style="fill:#fde725;stroke:#fde725;" x="172.498423" xlink:href="#C0_0_f53f4d56db" y="140.780114"/>
    </g>
    <g clip-path="url(#pf8389faf2e)">
     <use style="fill:#fde725;stroke:#fde725;" x="297.916053" xlink:href="#C0_0_f53f4d56db" y="143.248628"/>
    </g>
    <g clip-path="url(#pf8389faf2e)">
     <use style="fill:#fde725;stroke:#fde725;" x="240.873407" xlink:href="#C0_0_f53f4d56db" y="203.207121"/>
    </g>
    <g clip-path="url(#pf8389faf2e)">
     <use style="fill:#fde725;stroke:#fde725;" x="308.704114" xlink:href="#C0_0_f53f4d56db" y="123.361265"/>
    </g>
    <g clip-path="url(#pf8389faf2e)">
     <use style="fill:#440154;stroke:#440154;" x="160.593939" xlink:href="#C0_0_f53f4d56db" y="92.181767"/>
    </g>
    <g clip-path="url(#pf8389faf2e)">
     <use style="fill:#fde725;stroke:#fde725;" x="180.878416" xlink:href="#C0_0_f53f4d56db" y="197.503991"/>
    </g>
    <g clip-path="url(#pf8389faf2e)">
     <use style="fill:#fde725;stroke:#fde725;" x="238.87022" xlink:href="#C0_0_f53f4d56db" y="196.801141"/>
    </g>
    <g clip-path="url(#pf8389faf2e)">
     <use style="fill:#fde725;stroke:#fde725;" x="255.804934" xlink:href="#C0_0_f53f4d56db" y="196.265278"/>
    </g>
    <g clip-path="url(#pf8389faf2e)">
     <use style="fill:#440154;stroke:#440154;" x="92.961809" xlink:href="#C0_0_f53f4d56db" y="147.178337"/>
    </g>
    <g clip-path="url(#pf8389faf2e)">
     <use style="fill:#fde725;stroke:#fde725;" x="188.235505" xlink:href="#C0_0_f53f4d56db" y="192.300685"/>
    </g>
    <g clip-path="url(#pf8389faf2e)">
     <use style="fill:#440154;stroke:#440154;" x="124.008276" xlink:href="#C0_0_f53f4d56db" y="124.553591"/>
    </g>
    <g clip-path="url(#pf8389faf2e)">
     <use style="fill:#440154;stroke:#440154;" x="125.051896" xlink:href="#C0_0_f53f4d56db" y="126.371298"/>
    </g>
    <g clip-path="url(#pf8389faf2e)">
     <use style="fill:#440154;stroke:#440154;" x="110.193937" xlink:href="#C0_0_f53f4d56db" y="132.918812"/>
    </g>
    <g clip-path="url(#pf8389faf2e)">
     <use style="fill:#fde725;stroke:#fde725;" x="252.749284" xlink:href="#C0_0_f53f4d56db" y="161.412863"/>
    </g>
    <g clip-path="url(#pf8389faf2e)">
     <use style="fill:#fde725;stroke:#fde725;" x="164.677948" xlink:href="#C0_0_f53f4d56db" y="220.22217"/>
    </g>
    <g clip-path="url(#pf8389faf2e)">
     <use style="fill:#fde725;stroke:#fde725;" x="198.532097" xlink:href="#C0_0_f53f4d56db" y="225.068782"/>
    </g>
    <g clip-path="url(#pf8389faf2e)">
     <use style="fill:#fde725;stroke:#fde725;" x="192.692274" xlink:href="#C0_0_f53f4d56db" y="199.97058"/>
    </g>
    <g clip-path="url(#pf8389faf2e)">
     <use style="fill:#fde725;stroke:#fde725;" x="182.538874" xlink:href="#C0_0_f53f4d56db" y="223.132084"/>
    </g>
    <g clip-path="url(#pf8389faf2e)">
     <use style="fill:#fde725;stroke:#fde725;" x="173.902035" xlink:href="#C0_0_f53f4d56db" y="207.622959"/>
    </g>
    <g clip-path="url(#pf8389faf2e)">
     <use style="fill:#fde725;stroke:#fde725;" x="152.796342" xlink:href="#C0_0_f53f4d56db" y="194.456161"/>
    </g>
    <g clip-path="url(#pf8389faf2e)">
     <use style="fill:#fde725;stroke:#fde725;" x="165.699906" xlink:href="#C0_0_f53f4d56db" y="209.725587"/>
    </g>
    <g clip-path="url(#pf8389faf2e)">
     <use style="fill:#fde725;stroke:#fde725;" x="223.519374" xlink:href="#C0_0_f53f4d56db" y="182.837697"/>
    </g>
    <g clip-path="url(#pf8389faf2e)">
     <use style="fill:#fde725;stroke:#fde725;" x="373.581818" xlink:href="#C0_0_f53f4d56db" y="84.258368"/>
    </g>
    <g clip-path="url(#pf8389faf2e)">
     <use style="fill:#fde725;stroke:#fde725;" x="274.475875" xlink:href="#C0_0_f53f4d56db" y="165.193418"/>
    </g>
    <g clip-path="url(#pf8389faf2e)">
     <use style="fill:#fde725;stroke:#fde725;" x="359.97212" xlink:href="#C0_0_f53f4d56db" y="96.434035"/>
    </g>
    <g clip-path="url(#pf8389faf2e)">
     <use style="fill:#fde725;stroke:#fde725;" x="367.908665" xlink:href="#C0_0_f53f4d56db" y="97.60794"/>
    </g>
    <g clip-path="url(#pf8389faf2e)">
     <use style="fill:#440154;stroke:#440154;" x="89.061599" xlink:href="#C0_0_f53f4d56db" y="165.051224"/>
    </g>
    <g clip-path="url(#pf8389faf2e)">
     <use style="fill:#440154;stroke:#440154;" x="73.794004" xlink:href="#C0_0_f53f4d56db" y="156.837857"/>
    </g>
    <g clip-path="url(#pf8389faf2e)">
     <use style="fill:#440154;stroke:#440154;" x="101.386986" xlink:href="#C0_0_f53f4d56db" y="171.647541"/>
    </g>
    <g clip-path="url(#pf8389faf2e)">
     <use style="fill:#fde725;stroke:#fde725;" x="156.068765" xlink:href="#C0_0_f53f4d56db" y="213.322911"/>
    </g>
    <g clip-path="url(#pf8389faf2e)">
     <use style="fill:#440154;stroke:#440154;" x="120.668154" xlink:href="#C0_0_f53f4d56db" y="196.569478"/>
    </g>
    <g clip-path="url(#pf8389faf2e)">
     <use style="fill:#fde725;stroke:#fde725;" x="179.112647" xlink:href="#C0_0_f53f4d56db" y="234.136977"/>
    </g>
    <g clip-path="url(#pf8389faf2e)">
     <use style="fill:#fde725;stroke:#fde725;" x="176.732647" xlink:href="#C0_0_f53f4d56db" y="218.808041"/>
    </g>
    <g clip-path="url(#pf8389faf2e)">
     <use style="fill:#fde725;stroke:#fde725;" x="155.891663" xlink:href="#C0_0_f53f4d56db" y="223.022056"/>
    </g>
    <g clip-path="url(#pf8389faf2e)">
     <use style="fill:#fde725;stroke:#fde725;" x="195.714929" xlink:href="#C0_0_f53f4d56db" y="241.43392"/>
    </g>
    <g clip-path="url(#pf8389faf2e)">
     <use style="fill:#fde725;stroke:#fde725;" x="153.76841" xlink:href="#C0_0_f53f4d56db" y="212.12468"/>
    </g>
    <g clip-path="url(#pf8389faf2e)">
     <use style="fill:#fde725;stroke:#fde725;" x="257.315319" xlink:href="#C0_0_f53f4d56db" y="162.537749"/>
    </g>
    <g clip-path="url(#pf8389faf2e)">
     <use style="fill:#fde725;stroke:#fde725;" x="234.968695" xlink:href="#C0_0_f53f4d56db" y="155.623725"/>
    </g>
    <g clip-path="url(#pf8389faf2e)">
     <use style="fill:#fde725;stroke:#fde725;" x="257.127361" xlink:href="#C0_0_f53f4d56db" y="187.090795"/>
    </g>
    <g clip-path="url(#pf8389faf2e)">
     <use style="fill:#fde725;stroke:#fde725;" x="206.014306" xlink:href="#C0_0_f53f4d56db" y="222.390991"/>
    </g>
    <g clip-path="url(#pf8389faf2e)">
     <use style="fill:#fde725;stroke:#fde725;" x="162.663043" xlink:href="#C0_0_f53f4d56db" y="217.940755"/>
    </g>
    <g clip-path="url(#pf8389faf2e)">
     <use style="fill:#fde725;stroke:#fde725;" x="191.740968" xlink:href="#C0_0_f53f4d56db" y="238.338675"/>
    </g>
    <g clip-path="url(#pf8389faf2e)">
     <use style="fill:#fde725;stroke:#fde725;" x="159.985794" xlink:href="#C0_0_f53f4d56db" y="205.328063"/>
    </g>
    <g clip-path="url(#pf8389faf2e)">
     <use style="fill:#440154;stroke:#440154;" x="77.745062" xlink:href="#C0_0_f53f4d56db" y="159.551187"/>
    </g>
    <g clip-path="url(#pf8389faf2e)">
     <use style="fill:#fde725;stroke:#fde725;" x="198.296595" xlink:href="#C0_0_f53f4d56db" y="212.785733"/>
    </g>
    <g clip-path="url(#pf8389faf2e)">
     <use style="fill:#fde725;stroke:#fde725;" x="264.30213" xlink:href="#C0_0_f53f4d56db" y="132.576764"/>
    </g>
    <g clip-path="url(#pf8389faf2e)">
     <use style="fill:#440154;stroke:#440154;" x="127.001886" xlink:href="#C0_0_f53f4d56db" y="184.165331"/>
    </g>
    <g clip-path="url(#pf8389faf2e)">
     <use style="fill:#440154;stroke:#440154;" x="99.779637" xlink:href="#C0_0_f53f4d56db" y="175.174569"/>
    </g>
    <g clip-path="url(#pf8389faf2e)">
     <use style="fill:#440154;stroke:#440154;" x="98.618984" xlink:href="#C0_0_f53f4d56db" y="178.221876"/>
    </g>
    <g clip-path="url(#pf8389faf2e)">
     <use style="fill:#440154;stroke:#440154;" x="101.444782" xlink:href="#C0_0_f53f4d56db" y="168.943401"/>
    </g>
    <g clip-path="url(#pf8389faf2e)">
     <use style="fill:#440154;stroke:#440154;" x="117.69902" xlink:href="#C0_0_f53f4d56db" y="180.304781"/>
    </g>
    <g clip-path="url(#pf8389faf2e)">
     <use style="fill:#440154;stroke:#440154;" x="107.729966" xlink:href="#C0_0_f53f4d56db" y="186.958609"/>
    </g>
    <g clip-path="url(#pf8389faf2e)">
     <use style="fill:#440154;stroke:#440154;" x="73.359908" xlink:href="#C0_0_f53f4d56db" y="155.643757"/>
    </g>
    <g clip-path="url(#pf8389faf2e)">
     <use style="fill:#440154;stroke:#440154;" x="99.006077" xlink:href="#C0_0_f53f4d56db" y="171.000115"/>
    </g>
    <g clip-path="url(#pf8389faf2e)">
     <use style="fill:#440154;stroke:#440154;" x="91.004546" xlink:href="#C0_0_f53f4d56db" y="167.371614"/>
    </g>
    <g clip-path="url(#pf8389faf2e)">
     <use style="fill:#440154;stroke:#440154;" x="79.828313" xlink:href="#C0_0_f53f4d56db" y="162.90568"/>
    </g>
    <g clip-path="url(#pf8389faf2e)">
     <use style="fill:#440154;stroke:#440154;" x="92.111401" xlink:href="#C0_0_f53f4d56db" y="172.880564"/>
    </g>
    <g clip-path="url(#pf8389faf2e)">
     <use style="fill:#440154;stroke:#440154;" x="69.381008" xlink:href="#C0_0_f53f4d56db" y="155.307571"/>
    </g>
    <g clip-path="url(#pf8389faf2e)">
     <use style="fill:#440154;stroke:#440154;" x="70.479556" xlink:href="#C0_0_f53f4d56db" y="155.02514"/>
    </g>
    <g clip-path="url(#pf8389faf2e)">
     <use style="fill:#440154;stroke:#440154;" x="74.973001" xlink:href="#C0_0_f53f4d56db" y="151.875634"/>
    </g>
    <g clip-path="url(#pf8389faf2e)">
     <use style="fill:#440154;stroke:#440154;" x="71.197316" xlink:href="#C0_0_f53f4d56db" y="154.958113"/>
    </g>
    <g clip-path="url(#pf8389faf2e)">
     <use style="fill:#440154;stroke:#440154;" x="72.164196" xlink:href="#C0_0_f53f4d56db" y="155.116875"/>
    </g>
    <g clip-path="url(#pf8389faf2e)">
     <use style="fill:#440154;stroke:#440154;" x="70.237825" xlink:href="#C0_0_f53f4d56db" y="155.191428"/>
    </g>
    <g clip-path="url(#pf8389faf2e)">
     <use style="fill:#440154;stroke:#440154;" x="69.24054" xlink:href="#C0_0_f53f4d56db" y="155.270168"/>
    </g>
    <g clip-path="url(#pf8389faf2e)">
     <use style="fill:#440154;stroke:#440154;" x="83.683056" xlink:href="#C0_0_f53f4d56db" y="140.444905"/>
    </g>
    <g clip-path="url(#pf8389faf2e)">
     <use style="fill:#440154;stroke:#440154;" x="74.748935" xlink:href="#C0_0_f53f4d56db" y="149.890333"/>
    </g>
    <g clip-path="url(#pf8389faf2e)">
     <use style="fill:#440154;stroke:#440154;" x="73.422844" xlink:href="#C0_0_f53f4d56db" y="151.399279"/>
    </g>
    <g clip-path="url(#pf8389faf2e)">
     <use style="fill:#440154;stroke:#440154;" x="80.883667" xlink:href="#C0_0_f53f4d56db" y="143.918544"/>
    </g>
    <g clip-path="url(#pf8389faf2e)">
     <use style="fill:#440154;stroke:#440154;" x="70.838779" xlink:href="#C0_0_f53f4d56db" y="153.815246"/>
    </g>
    <g clip-path="url(#pf8389faf2e)">
     <use style="fill:#440154;stroke:#440154;" x="72.021876" xlink:href="#C0_0_f53f4d56db" y="152.593656"/>
    </g>
    <g clip-path="url(#pf8389faf2e)">
     <use style="fill:#440154;stroke:#440154;" x="69.381008" xlink:href="#C0_0_f53f4d56db" y="155.307571"/>
    </g>
    <g clip-path="url(#pf8389faf2e)">
     <use style="fill:#440154;stroke:#440154;" x="69.339031" xlink:href="#C0_0_f53f4d56db" y="155.301685"/>
    </g>
    <g clip-path="url(#pf8389faf2e)">
     <use style="fill:#440154;stroke:#440154;" x="69.343509" xlink:href="#C0_0_f53f4d56db" y="155.302313"/>
    </g>
    <g clip-path="url(#pf8389faf2e)">
     <use style="fill:#440154;stroke:#440154;" x="69.347392" xlink:href="#C0_0_f53f4d56db" y="155.289605"/>
    </g>
    <g clip-path="url(#pf8389faf2e)">
     <use style="fill:#440154;stroke:#440154;" x="69.360279" xlink:href="#C0_0_f53f4d56db" y="154.704566"/>
    </g>
    <g clip-path="url(#pf8389faf2e)">
     <use style="fill:#440154;stroke:#440154;" x="69.218182" xlink:href="#C0_0_f53f4d56db" y="154.968973"/>
    </g>
    <g clip-path="url(#pf8389faf2e)">
     <use style="fill:#440154;stroke:#440154;" x="69.271048" xlink:href="#C0_0_f53f4d56db" y="154.798095"/>
    </g>
    <g clip-path="url(#pf8389faf2e)">
     <use style="fill:#440154;stroke:#440154;" x="69.272474" xlink:href="#C0_0_f53f4d56db" y="154.782216"/>
    </g>
    <g clip-path="url(#pf8389faf2e)">
     <use style="fill:#440154;stroke:#440154;" x="69.336582" xlink:href="#C0_0_f53f4d56db" y="155.203468"/>
    </g>
    <g clip-path="url(#pf8389faf2e)">
     <use style="fill:#440154;stroke:#440154;" x="72.158582" xlink:href="#C0_0_f53f4d56db" y="152.248358"/>
    </g>
   </g>
   <g id="matplotlib.axis_1">
    <g id="xtick_1">
     <g id="line2d_1">
      <defs>
       <path d="M 0 0 
L 0 3.5 
" id="ma4aa2dd2a2" style="stroke:#000000;stroke-width:0.8;"/>
      </defs>
      <g>
       <use style="stroke:#000000;stroke-width:0.8;" x="93.760205" xlink:href="#ma4aa2dd2a2" y="252"/>
      </g>
     </g>
     <g id="text_1">
      <!-- −5 -->
      <g transform="translate(86.389112 266.598437)scale(0.1 -0.1)">
       <defs>
        <path d="M 10.59375 35.5 
L 73.1875 35.5 
L 73.1875 27.203125 
L 10.59375 27.203125 
z
" id="DejaVuSans-8722"/>
        <path d="M 10.796875 72.90625 
L 49.515625 72.90625 
L 49.515625 64.59375 
L 19.828125 64.59375 
L 19.828125 46.734375 
Q 21.96875 47.46875 24.109375 47.828125 
Q 26.265625 48.1875 28.421875 48.1875 
Q 40.625 48.1875 47.75 41.5 
Q 54.890625 34.8125 54.890625 23.390625 
Q 54.890625 11.625 47.5625 5.09375 
Q 40.234375 -1.421875 26.90625 -1.421875 
Q 22.3125 -1.421875 17.546875 -0.640625 
Q 12.796875 0.140625 7.71875 1.703125 
L 7.71875 11.625 
Q 12.109375 9.234375 16.796875 8.0625 
Q 21.484375 6.890625 26.703125 6.890625 
Q 35.15625 6.890625 40.078125 11.328125 
Q 45.015625 15.765625 45.015625 23.390625 
Q 45.015625 31 40.078125 35.4375 
Q 35.15625 39.890625 26.703125 39.890625 
Q 22.75 39.890625 18.8125 39.015625 
Q 14.890625 38.140625 10.796875 36.28125 
z
" id="DejaVuSans-53"/>
       </defs>
       <use xlink:href="#DejaVuSans-8722"/>
       <use x="83.789062" xlink:href="#DejaVuSans-53"/>
      </g>
     </g>
    </g>
    <g id="xtick_2">
     <g id="line2d_2">
      <g>
       <use style="stroke:#000000;stroke-width:0.8;" x="163.687678" xlink:href="#ma4aa2dd2a2" y="252"/>
      </g>
     </g>
     <g id="text_2">
      <!-- 0 -->
      <g transform="translate(160.506428 266.598437)scale(0.1 -0.1)">
       <defs>
        <path d="M 31.78125 66.40625 
Q 24.171875 66.40625 20.328125 58.90625 
Q 16.5 51.421875 16.5 36.375 
Q 16.5 21.390625 20.328125 13.890625 
Q 24.171875 6.390625 31.78125 6.390625 
Q 39.453125 6.390625 43.28125 13.890625 
Q 47.125 21.390625 47.125 36.375 
Q 47.125 51.421875 43.28125 58.90625 
Q 39.453125 66.40625 31.78125 66.40625 
z
M 31.78125 74.21875 
Q 44.046875 74.21875 50.515625 64.515625 
Q 56.984375 54.828125 56.984375 36.375 
Q 56.984375 17.96875 50.515625 8.265625 
Q 44.046875 -1.421875 31.78125 -1.421875 
Q 19.53125 -1.421875 13.0625 8.265625 
Q 6.59375 17.96875 6.59375 36.375 
Q 6.59375 54.828125 13.0625 64.515625 
Q 19.53125 74.21875 31.78125 74.21875 
z
" id="DejaVuSans-48"/>
       </defs>
       <use xlink:href="#DejaVuSans-48"/>
      </g>
     </g>
    </g>
    <g id="xtick_3">
     <g id="line2d_3">
      <g>
       <use style="stroke:#000000;stroke-width:0.8;" x="233.61515" xlink:href="#ma4aa2dd2a2" y="252"/>
      </g>
     </g>
     <g id="text_3">
      <!-- 5 -->
      <g transform="translate(230.4339 266.598437)scale(0.1 -0.1)">
       <use xlink:href="#DejaVuSans-53"/>
      </g>
     </g>
    </g>
    <g id="xtick_4">
     <g id="line2d_4">
      <g>
       <use style="stroke:#000000;stroke-width:0.8;" x="303.542623" xlink:href="#ma4aa2dd2a2" y="252"/>
      </g>
     </g>
     <g id="text_4">
      <!-- 10 -->
      <g transform="translate(297.180123 266.598437)scale(0.1 -0.1)">
       <defs>
        <path d="M 12.40625 8.296875 
L 28.515625 8.296875 
L 28.515625 63.921875 
L 10.984375 60.40625 
L 10.984375 69.390625 
L 28.421875 72.90625 
L 38.28125 72.90625 
L 38.28125 8.296875 
L 54.390625 8.296875 
L 54.390625 0 
L 12.40625 0 
z
" id="DejaVuSans-49"/>
       </defs>
       <use xlink:href="#DejaVuSans-49"/>
       <use x="63.623047" xlink:href="#DejaVuSans-48"/>
      </g>
     </g>
    </g>
    <g id="xtick_5">
     <g id="line2d_5">
      <g>
       <use style="stroke:#000000;stroke-width:0.8;" x="373.470095" xlink:href="#ma4aa2dd2a2" y="252"/>
      </g>
     </g>
     <g id="text_5">
      <!-- 15 -->
      <g transform="translate(367.107595 266.598437)scale(0.1 -0.1)">
       <use xlink:href="#DejaVuSans-49"/>
       <use x="63.623047" xlink:href="#DejaVuSans-53"/>
      </g>
     </g>
    </g>
   </g>
   <g id="matplotlib.axis_2">
    <g id="ytick_1">
     <g id="line2d_6">
      <defs>
       <path d="M 0 0 
L -3.5 0 
" id="m1308aaa2f1" style="stroke:#000000;stroke-width:0.8;"/>
      </defs>
      <g>
       <use style="stroke:#000000;stroke-width:0.8;" x="54" xlink:href="#m1308aaa2f1" y="230.076146"/>
      </g>
     </g>
     <g id="text_6">
      <!-- −5.0 -->
      <g transform="translate(22.717187 233.875365)scale(0.1 -0.1)">
       <defs>
        <path d="M 10.6875 12.40625 
L 21 12.40625 
L 21 0 
L 10.6875 0 
z
" id="DejaVuSans-46"/>
       </defs>
       <use xlink:href="#DejaVuSans-8722"/>
       <use x="83.789062" xlink:href="#DejaVuSans-53"/>
       <use x="147.412109" xlink:href="#DejaVuSans-46"/>
       <use x="179.199219" xlink:href="#DejaVuSans-48"/>
      </g>
     </g>
    </g>
    <g id="ytick_2">
     <g id="line2d_7">
      <g>
       <use style="stroke:#000000;stroke-width:0.8;" x="54" xlink:href="#m1308aaa2f1" y="203.091629"/>
      </g>
     </g>
     <g id="text_7">
      <!-- −2.5 -->
      <g transform="translate(22.717187 206.890847)scale(0.1 -0.1)">
       <defs>
        <path d="M 19.1875 8.296875 
L 53.609375 8.296875 
L 53.609375 0 
L 7.328125 0 
L 7.328125 8.296875 
Q 12.9375 14.109375 22.625 23.890625 
Q 32.328125 33.6875 34.8125 36.53125 
Q 39.546875 41.84375 41.421875 45.53125 
Q 43.3125 49.21875 43.3125 52.78125 
Q 43.3125 58.59375 39.234375 62.25 
Q 35.15625 65.921875 28.609375 65.921875 
Q 23.96875 65.921875 18.8125 64.3125 
Q 13.671875 62.703125 7.8125 59.421875 
L 7.8125 69.390625 
Q 13.765625 71.78125 18.9375 73 
Q 24.125 74.21875 28.421875 74.21875 
Q 39.75 74.21875 46.484375 68.546875 
Q 53.21875 62.890625 53.21875 53.421875 
Q 53.21875 48.921875 51.53125 44.890625 
Q 49.859375 40.875 45.40625 35.40625 
Q 44.1875 33.984375 37.640625 27.21875 
Q 31.109375 20.453125 19.1875 8.296875 
z
" id="DejaVuSans-50"/>
       </defs>
       <use xlink:href="#DejaVuSans-8722"/>
       <use x="83.789062" xlink:href="#DejaVuSans-50"/>
       <use x="147.412109" xlink:href="#DejaVuSans-46"/>
       <use x="179.199219" xlink:href="#DejaVuSans-53"/>
      </g>
     </g>
    </g>
    <g id="ytick_3">
     <g id="line2d_8">
      <g>
       <use style="stroke:#000000;stroke-width:0.8;" x="54" xlink:href="#m1308aaa2f1" y="176.107111"/>
      </g>
     </g>
     <g id="text_8">
      <!-- 0.0 -->
      <g transform="translate(31.096875 179.90633)scale(0.1 -0.1)">
       <use xlink:href="#DejaVuSans-48"/>
       <use x="63.623047" xlink:href="#DejaVuSans-46"/>
       <use x="95.410156" xlink:href="#DejaVuSans-48"/>
      </g>
     </g>
    </g>
    <g id="ytick_4">
     <g id="line2d_9">
      <g>
       <use style="stroke:#000000;stroke-width:0.8;" x="54" xlink:href="#m1308aaa2f1" y="149.122594"/>
      </g>
     </g>
     <g id="text_9">
      <!-- 2.5 -->
      <g transform="translate(31.096875 152.921813)scale(0.1 -0.1)">
       <use xlink:href="#DejaVuSans-50"/>
       <use x="63.623047" xlink:href="#DejaVuSans-46"/>
       <use x="95.410156" xlink:href="#DejaVuSans-53"/>
      </g>
     </g>
    </g>
    <g id="ytick_5">
     <g id="line2d_10">
      <g>
       <use style="stroke:#000000;stroke-width:0.8;" x="54" xlink:href="#m1308aaa2f1" y="122.138077"/>
      </g>
     </g>
     <g id="text_10">
      <!-- 5.0 -->
      <g transform="translate(31.096875 125.937296)scale(0.1 -0.1)">
       <use xlink:href="#DejaVuSans-53"/>
       <use x="63.623047" xlink:href="#DejaVuSans-46"/>
       <use x="95.410156" xlink:href="#DejaVuSans-48"/>
      </g>
     </g>
    </g>
    <g id="ytick_6">
     <g id="line2d_11">
      <g>
       <use style="stroke:#000000;stroke-width:0.8;" x="54" xlink:href="#m1308aaa2f1" y="95.15356"/>
      </g>
     </g>
     <g id="text_11">
      <!-- 7.5 -->
      <g transform="translate(31.096875 98.952778)scale(0.1 -0.1)">
       <defs>
        <path d="M 8.203125 72.90625 
L 55.078125 72.90625 
L 55.078125 68.703125 
L 28.609375 0 
L 18.3125 0 
L 43.21875 64.59375 
L 8.203125 64.59375 
z
" id="DejaVuSans-55"/>
       </defs>
       <use xlink:href="#DejaVuSans-55"/>
       <use x="63.623047" xlink:href="#DejaVuSans-46"/>
       <use x="95.410156" xlink:href="#DejaVuSans-53"/>
      </g>
     </g>
    </g>
    <g id="ytick_7">
     <g id="line2d_12">
      <g>
       <use style="stroke:#000000;stroke-width:0.8;" x="54" xlink:href="#m1308aaa2f1" y="68.169042"/>
      </g>
     </g>
     <g id="text_12">
      <!-- 10.0 -->
      <g transform="translate(24.734375 71.968261)scale(0.1 -0.1)">
       <use xlink:href="#DejaVuSans-49"/>
       <use x="63.623047" xlink:href="#DejaVuSans-48"/>
       <use x="127.246094" xlink:href="#DejaVuSans-46"/>
       <use x="159.033203" xlink:href="#DejaVuSans-48"/>
      </g>
     </g>
    </g>
    <g id="ytick_8">
     <g id="line2d_13">
      <g>
       <use style="stroke:#000000;stroke-width:0.8;" x="54" xlink:href="#m1308aaa2f1" y="41.184525"/>
      </g>
     </g>
     <g id="text_13">
      <!-- 12.5 -->
      <g transform="translate(24.734375 44.983744)scale(0.1 -0.1)">
       <use xlink:href="#DejaVuSans-49"/>
       <use x="63.623047" xlink:href="#DejaVuSans-50"/>
       <use x="127.246094" xlink:href="#DejaVuSans-46"/>
       <use x="159.033203" xlink:href="#DejaVuSans-53"/>
      </g>
     </g>
    </g>
   </g>
   <g id="patch_3">
    <path d="M 54 252 
L 54 34.56 
" style="fill:none;stroke:#000000;stroke-linecap:square;stroke-linejoin:miter;stroke-width:0.8;"/>
   </g>
   <g id="patch_4">
    <path d="M 388.8 252 
L 388.8 34.56 
" style="fill:none;stroke:#000000;stroke-linecap:square;stroke-linejoin:miter;stroke-width:0.8;"/>
   </g>
   <g id="patch_5">
    <path d="M 54 252 
L 388.8 252 
" style="fill:none;stroke:#000000;stroke-linecap:square;stroke-linejoin:miter;stroke-width:0.8;"/>
   </g>
   <g id="patch_6">
    <path d="M 54 34.56 
L 388.8 34.56 
" style="fill:none;stroke:#000000;stroke-linecap:square;stroke-linejoin:miter;stroke-width:0.8;"/>
   </g>
   <g id="text_14">
    <!-- Estimated number of clusters: 2 -->
    <g transform="translate(124.892813 28.56)scale(0.12 -0.12)">
     <defs>
      <path d="M 9.8125 72.90625 
L 55.90625 72.90625 
L 55.90625 64.59375 
L 19.671875 64.59375 
L 19.671875 43.015625 
L 54.390625 43.015625 
L 54.390625 34.71875 
L 19.671875 34.71875 
L 19.671875 8.296875 
L 56.78125 8.296875 
L 56.78125 0 
L 9.8125 0 
z
" id="DejaVuSans-69"/>
      <path d="M 44.28125 53.078125 
L 44.28125 44.578125 
Q 40.484375 46.53125 36.375 47.5 
Q 32.28125 48.484375 27.875 48.484375 
Q 21.1875 48.484375 17.84375 46.4375 
Q 14.5 44.390625 14.5 40.28125 
Q 14.5 37.15625 16.890625 35.375 
Q 19.28125 33.59375 26.515625 31.984375 
L 29.59375 31.296875 
Q 39.15625 29.25 43.1875 25.515625 
Q 47.21875 21.78125 47.21875 15.09375 
Q 47.21875 7.46875 41.1875 3.015625 
Q 35.15625 -1.421875 24.609375 -1.421875 
Q 20.21875 -1.421875 15.453125 -0.5625 
Q 10.6875 0.296875 5.421875 2 
L 5.421875 11.28125 
Q 10.40625 8.6875 15.234375 7.390625 
Q 20.0625 6.109375 24.8125 6.109375 
Q 31.15625 6.109375 34.5625 8.28125 
Q 37.984375 10.453125 37.984375 14.40625 
Q 37.984375 18.0625 35.515625 20.015625 
Q 33.0625 21.96875 24.703125 23.78125 
L 21.578125 24.515625 
Q 13.234375 26.265625 9.515625 29.90625 
Q 5.8125 33.546875 5.8125 39.890625 
Q 5.8125 47.609375 11.28125 51.796875 
Q 16.75 56 26.8125 56 
Q 31.78125 56 36.171875 55.265625 
Q 40.578125 54.546875 44.28125 53.078125 
z
" id="DejaVuSans-115"/>
      <path d="M 18.3125 70.21875 
L 18.3125 54.6875 
L 36.8125 54.6875 
L 36.8125 47.703125 
L 18.3125 47.703125 
L 18.3125 18.015625 
Q 18.3125 11.328125 20.140625 9.421875 
Q 21.96875 7.515625 27.59375 7.515625 
L 36.8125 7.515625 
L 36.8125 0 
L 27.59375 0 
Q 17.1875 0 13.234375 3.875 
Q 9.28125 7.765625 9.28125 18.015625 
L 9.28125 47.703125 
L 2.6875 47.703125 
L 2.6875 54.6875 
L 9.28125 54.6875 
L 9.28125 70.21875 
z
" id="DejaVuSans-116"/>
      <path d="M 9.421875 54.6875 
L 18.40625 54.6875 
L 18.40625 0 
L 9.421875 0 
z
M 9.421875 75.984375 
L 18.40625 75.984375 
L 18.40625 64.59375 
L 9.421875 64.59375 
z
" id="DejaVuSans-105"/>
      <path d="M 52 44.1875 
Q 55.375 50.25 60.0625 53.125 
Q 64.75 56 71.09375 56 
Q 79.640625 56 84.28125 50.015625 
Q 88.921875 44.046875 88.921875 33.015625 
L 88.921875 0 
L 79.890625 0 
L 79.890625 32.71875 
Q 79.890625 40.578125 77.09375 44.375 
Q 74.3125 48.1875 68.609375 48.1875 
Q 61.625 48.1875 57.5625 43.546875 
Q 53.515625 38.921875 53.515625 30.90625 
L 53.515625 0 
L 44.484375 0 
L 44.484375 32.71875 
Q 44.484375 40.625 41.703125 44.40625 
Q 38.921875 48.1875 33.109375 48.1875 
Q 26.21875 48.1875 22.15625 43.53125 
Q 18.109375 38.875 18.109375 30.90625 
L 18.109375 0 
L 9.078125 0 
L 9.078125 54.6875 
L 18.109375 54.6875 
L 18.109375 46.1875 
Q 21.1875 51.21875 25.484375 53.609375 
Q 29.78125 56 35.6875 56 
Q 41.65625 56 45.828125 52.96875 
Q 50 49.953125 52 44.1875 
z
" id="DejaVuSans-109"/>
      <path d="M 34.28125 27.484375 
Q 23.390625 27.484375 19.1875 25 
Q 14.984375 22.515625 14.984375 16.5 
Q 14.984375 11.71875 18.140625 8.90625 
Q 21.296875 6.109375 26.703125 6.109375 
Q 34.1875 6.109375 38.703125 11.40625 
Q 43.21875 16.703125 43.21875 25.484375 
L 43.21875 27.484375 
z
M 52.203125 31.203125 
L 52.203125 0 
L 43.21875 0 
L 43.21875 8.296875 
Q 40.140625 3.328125 35.546875 0.953125 
Q 30.953125 -1.421875 24.3125 -1.421875 
Q 15.921875 -1.421875 10.953125 3.296875 
Q 6 8.015625 6 15.921875 
Q 6 25.140625 12.171875 29.828125 
Q 18.359375 34.515625 30.609375 34.515625 
L 43.21875 34.515625 
L 43.21875 35.40625 
Q 43.21875 41.609375 39.140625 45 
Q 35.0625 48.390625 27.6875 48.390625 
Q 23 48.390625 18.546875 47.265625 
Q 14.109375 46.140625 10.015625 43.890625 
L 10.015625 52.203125 
Q 14.9375 54.109375 19.578125 55.046875 
Q 24.21875 56 28.609375 56 
Q 40.484375 56 46.34375 49.84375 
Q 52.203125 43.703125 52.203125 31.203125 
z
" id="DejaVuSans-97"/>
      <path d="M 56.203125 29.59375 
L 56.203125 25.203125 
L 14.890625 25.203125 
Q 15.484375 15.921875 20.484375 11.0625 
Q 25.484375 6.203125 34.421875 6.203125 
Q 39.59375 6.203125 44.453125 7.46875 
Q 49.3125 8.734375 54.109375 11.28125 
L 54.109375 2.78125 
Q 49.265625 0.734375 44.1875 -0.34375 
Q 39.109375 -1.421875 33.890625 -1.421875 
Q 20.796875 -1.421875 13.15625 6.1875 
Q 5.515625 13.8125 5.515625 26.8125 
Q 5.515625 40.234375 12.765625 48.109375 
Q 20.015625 56 32.328125 56 
Q 43.359375 56 49.78125 48.890625 
Q 56.203125 41.796875 56.203125 29.59375 
z
M 47.21875 32.234375 
Q 47.125 39.59375 43.09375 43.984375 
Q 39.0625 48.390625 32.421875 48.390625 
Q 24.90625 48.390625 20.390625 44.140625 
Q 15.875 39.890625 15.1875 32.171875 
z
" id="DejaVuSans-101"/>
      <path d="M 45.40625 46.390625 
L 45.40625 75.984375 
L 54.390625 75.984375 
L 54.390625 0 
L 45.40625 0 
L 45.40625 8.203125 
Q 42.578125 3.328125 38.25 0.953125 
Q 33.9375 -1.421875 27.875 -1.421875 
Q 17.96875 -1.421875 11.734375 6.484375 
Q 5.515625 14.40625 5.515625 27.296875 
Q 5.515625 40.1875 11.734375 48.09375 
Q 17.96875 56 27.875 56 
Q 33.9375 56 38.25 53.625 
Q 42.578125 51.265625 45.40625 46.390625 
z
M 14.796875 27.296875 
Q 14.796875 17.390625 18.875 11.75 
Q 22.953125 6.109375 30.078125 6.109375 
Q 37.203125 6.109375 41.296875 11.75 
Q 45.40625 17.390625 45.40625 27.296875 
Q 45.40625 37.203125 41.296875 42.84375 
Q 37.203125 48.484375 30.078125 48.484375 
Q 22.953125 48.484375 18.875 42.84375 
Q 14.796875 37.203125 14.796875 27.296875 
z
" id="DejaVuSans-100"/>
      <path id="DejaVuSans-32"/>
      <path d="M 54.890625 33.015625 
L 54.890625 0 
L 45.90625 0 
L 45.90625 32.71875 
Q 45.90625 40.484375 42.875 44.328125 
Q 39.84375 48.1875 33.796875 48.1875 
Q 26.515625 48.1875 22.3125 43.546875 
Q 18.109375 38.921875 18.109375 30.90625 
L 18.109375 0 
L 9.078125 0 
L 9.078125 54.6875 
L 18.109375 54.6875 
L 18.109375 46.1875 
Q 21.34375 51.125 25.703125 53.5625 
Q 30.078125 56 35.796875 56 
Q 45.21875 56 50.046875 50.171875 
Q 54.890625 44.34375 54.890625 33.015625 
z
" id="DejaVuSans-110"/>
      <path d="M 8.5 21.578125 
L 8.5 54.6875 
L 17.484375 54.6875 
L 17.484375 21.921875 
Q 17.484375 14.15625 20.5 10.265625 
Q 23.53125 6.390625 29.59375 6.390625 
Q 36.859375 6.390625 41.078125 11.03125 
Q 45.3125 15.671875 45.3125 23.6875 
L 45.3125 54.6875 
L 54.296875 54.6875 
L 54.296875 0 
L 45.3125 0 
L 45.3125 8.40625 
Q 42.046875 3.421875 37.71875 1 
Q 33.40625 -1.421875 27.6875 -1.421875 
Q 18.265625 -1.421875 13.375 4.4375 
Q 8.5 10.296875 8.5 21.578125 
z
M 31.109375 56 
z
" id="DejaVuSans-117"/>
      <path d="M 48.6875 27.296875 
Q 48.6875 37.203125 44.609375 42.84375 
Q 40.53125 48.484375 33.40625 48.484375 
Q 26.265625 48.484375 22.1875 42.84375 
Q 18.109375 37.203125 18.109375 27.296875 
Q 18.109375 17.390625 22.1875 11.75 
Q 26.265625 6.109375 33.40625 6.109375 
Q 40.53125 6.109375 44.609375 11.75 
Q 48.6875 17.390625 48.6875 27.296875 
z
M 18.109375 46.390625 
Q 20.953125 51.265625 25.265625 53.625 
Q 29.59375 56 35.59375 56 
Q 45.5625 56 51.78125 48.09375 
Q 58.015625 40.1875 58.015625 27.296875 
Q 58.015625 14.40625 51.78125 6.484375 
Q 45.5625 -1.421875 35.59375 -1.421875 
Q 29.59375 -1.421875 25.265625 0.953125 
Q 20.953125 3.328125 18.109375 8.203125 
L 18.109375 0 
L 9.078125 0 
L 9.078125 75.984375 
L 18.109375 75.984375 
z
" id="DejaVuSans-98"/>
      <path d="M 41.109375 46.296875 
Q 39.59375 47.171875 37.8125 47.578125 
Q 36.03125 48 33.890625 48 
Q 26.265625 48 22.1875 43.046875 
Q 18.109375 38.09375 18.109375 28.8125 
L 18.109375 0 
L 9.078125 0 
L 9.078125 54.6875 
L 18.109375 54.6875 
L 18.109375 46.1875 
Q 20.953125 51.171875 25.484375 53.578125 
Q 30.03125 56 36.53125 56 
Q 37.453125 56 38.578125 55.875 
Q 39.703125 55.765625 41.0625 55.515625 
z
" id="DejaVuSans-114"/>
      <path d="M 30.609375 48.390625 
Q 23.390625 48.390625 19.1875 42.75 
Q 14.984375 37.109375 14.984375 27.296875 
Q 14.984375 17.484375 19.15625 11.84375 
Q 23.34375 6.203125 30.609375 6.203125 
Q 37.796875 6.203125 41.984375 11.859375 
Q 46.1875 17.53125 46.1875 27.296875 
Q 46.1875 37.015625 41.984375 42.703125 
Q 37.796875 48.390625 30.609375 48.390625 
z
M 30.609375 56 
Q 42.328125 56 49.015625 48.375 
Q 55.71875 40.765625 55.71875 27.296875 
Q 55.71875 13.875 49.015625 6.21875 
Q 42.328125 -1.421875 30.609375 -1.421875 
Q 18.84375 -1.421875 12.171875 6.21875 
Q 5.515625 13.875 5.515625 27.296875 
Q 5.515625 40.765625 12.171875 48.375 
Q 18.84375 56 30.609375 56 
z
" id="DejaVuSans-111"/>
      <path d="M 37.109375 75.984375 
L 37.109375 68.5 
L 28.515625 68.5 
Q 23.6875 68.5 21.796875 66.546875 
Q 19.921875 64.59375 19.921875 59.515625 
L 19.921875 54.6875 
L 34.71875 54.6875 
L 34.71875 47.703125 
L 19.921875 47.703125 
L 19.921875 0 
L 10.890625 0 
L 10.890625 47.703125 
L 2.296875 47.703125 
L 2.296875 54.6875 
L 10.890625 54.6875 
L 10.890625 58.5 
Q 10.890625 67.625 15.140625 71.796875 
Q 19.390625 75.984375 28.609375 75.984375 
z
" id="DejaVuSans-102"/>
      <path d="M 48.78125 52.59375 
L 48.78125 44.1875 
Q 44.96875 46.296875 41.140625 47.34375 
Q 37.3125 48.390625 33.40625 48.390625 
Q 24.65625 48.390625 19.8125 42.84375 
Q 14.984375 37.3125 14.984375 27.296875 
Q 14.984375 17.28125 19.8125 11.734375 
Q 24.65625 6.203125 33.40625 6.203125 
Q 37.3125 6.203125 41.140625 7.25 
Q 44.96875 8.296875 48.78125 10.40625 
L 48.78125 2.09375 
Q 45.015625 0.34375 40.984375 -0.53125 
Q 36.96875 -1.421875 32.421875 -1.421875 
Q 20.0625 -1.421875 12.78125 6.34375 
Q 5.515625 14.109375 5.515625 27.296875 
Q 5.515625 40.671875 12.859375 48.328125 
Q 20.21875 56 33.015625 56 
Q 37.15625 56 41.109375 55.140625 
Q 45.0625 54.296875 48.78125 52.59375 
z
" id="DejaVuSans-99"/>
      <path d="M 9.421875 75.984375 
L 18.40625 75.984375 
L 18.40625 0 
L 9.421875 0 
z
" id="DejaVuSans-108"/>
      <path d="M 11.71875 12.40625 
L 22.015625 12.40625 
L 22.015625 0 
L 11.71875 0 
z
M 11.71875 51.703125 
L 22.015625 51.703125 
L 22.015625 39.3125 
L 11.71875 39.3125 
z
" id="DejaVuSans-58"/>
     </defs>
     <use xlink:href="#DejaVuSans-69"/>
     <use x="63.183594" xlink:href="#DejaVuSans-115"/>
     <use x="115.283203" xlink:href="#DejaVuSans-116"/>
     <use x="154.492188" xlink:href="#DejaVuSans-105"/>
     <use x="182.275391" xlink:href="#DejaVuSans-109"/>
     <use x="279.6875" xlink:href="#DejaVuSans-97"/>
     <use x="340.966797" xlink:href="#DejaVuSans-116"/>
     <use x="380.175781" xlink:href="#DejaVuSans-101"/>
     <use x="441.699219" xlink:href="#DejaVuSans-100"/>
     <use x="505.175781" xlink:href="#DejaVuSans-32"/>
     <use x="536.962891" xlink:href="#DejaVuSans-110"/>
     <use x="600.341797" xlink:href="#DejaVuSans-117"/>
     <use x="663.720703" xlink:href="#DejaVuSans-109"/>
     <use x="761.132812" xlink:href="#DejaVuSans-98"/>
     <use x="824.609375" xlink:href="#DejaVuSans-101"/>
     <use x="886.132812" xlink:href="#DejaVuSans-114"/>
     <use x="927.246094" xlink:href="#DejaVuSans-32"/>
     <use x="959.033203" xlink:href="#DejaVuSans-111"/>
     <use x="1020.214844" xlink:href="#DejaVuSans-102"/>
     <use x="1055.419922" xlink:href="#DejaVuSans-32"/>
     <use x="1087.207031" xlink:href="#DejaVuSans-99"/>
     <use x="1142.1875" xlink:href="#DejaVuSans-108"/>
     <use x="1169.970703" xlink:href="#DejaVuSans-117"/>
     <use x="1233.349609" xlink:href="#DejaVuSans-115"/>
     <use x="1285.449219" xlink:href="#DejaVuSans-116"/>
     <use x="1324.658203" xlink:href="#DejaVuSans-101"/>
     <use x="1386.181641" xlink:href="#DejaVuSans-114"/>
     <use x="1427.294922" xlink:href="#DejaVuSans-115"/>
     <use x="1479.394531" xlink:href="#DejaVuSans-58"/>
     <use x="1513.085938" xlink:href="#DejaVuSans-32"/>
     <use x="1544.873047" xlink:href="#DejaVuSans-50"/>
    </g>
   </g>
  </g>
 </g>
 <defs>
  <clipPath id="pf8389faf2e">
   <rect height="217.44" width="334.8" x="54" y="34.56"/>
  </clipPath>
 </defs>
</svg>
